<?xml version="1.0" encoding="utf-8"?>
<!-- Uploaded to: SVG Repo, www.svgrepo.com, Generator: SVG Repo Mixer Tools -->
<svg width="800px" height="800px" viewBox="0 0 24 24" fill="none" xmlns="http://www.w3.org/2000/svg">
<g id="style=doutone">
<g id="check">
<path id="vector (Stroke)" fill-rule="evenodd" clip-rule="evenodd" d="M19.5303 7.21479C19.8232 7.50768 19.8232 7.98255 19.5303 8.27545L11.6112 16.1946C10.5373 17.2685 8.79607 17.2685 7.72212 16.1946L4.46967 12.9421C4.17678 12.6492 4.17678 12.1743 4.46967 11.8815C4.76256 11.5886 5.23744 11.5886 5.53033 11.8815L8.78278 15.1339C9.27094 15.6221 10.0624 15.6221 10.5505 15.1339L18.4697 7.21479C18.7626 6.92189 19.2374 6.92189 19.5303 7.21479Z" fill="#000000"/>
<path id="vector (Stroke)_2" fill-rule="evenodd" clip-rule="evenodd" d="M19.5303 7.21479C19.8232 7.50768 19.8232 7.98255 19.5303 8.27545L14.8636 12.9421L13.3267 14.4791L12.266 13.4184L13.803 11.8815L18.4696 7.21479C18.7625 6.92189 19.2374 6.92189 19.5303 7.21479Z" fill="#BFBFBF"/>
</g>
</g>
</svg>