<!DOCTYPE svg PUBLIC "-//W3C//DTD SVG 1.1//EN" "http://www.w3.org/Graphics/SVG/1.1/DTD/svg11.dtd">
<!-- Uploaded to: SVG Repo, www.svgrepo.com, Transformed by: SVG Repo Mixer Tools -->
<svg fill="#ffffff" height="800px" width="800px" version="1.1" id="_x31_" xmlns="http://www.w3.org/2000/svg" xmlns:xlink="http://www.w3.org/1999/xlink" viewBox="0 0 128 128" xml:space="preserve" stroke="#ffffff">
<g id="SVGRepo_bgCarrier" stroke-width="0"/>
<g id="SVGRepo_tracerCarrier" stroke-linecap="round" stroke-linejoin="round"/>
<g id="SVGRepo_iconCarrier"> <ellipse id="_x33__35_" transform="matrix(0.4771 -0.8788 0.8788 0.4771 16.686 89.5041)" cx="83.6" cy="30.7" rx="5.8" ry="5.8"/> <path id="_x32__64_" d="M42.4,106.5L42.4,106.5c-1-0.5-1.3-1.7-0.8-2.7l2.9-5.3c0.5-1,1.7-1.3,2.7-0.8l0,0c1,0.5,1.3,1.7,0.8,2.7 l-2.9,5.3C44.6,106.6,43.4,107,42.4,106.5z"/> <path id="_x32__63_" d="M33.5,106.2L33.5,106.2c-1-0.5-1.3-1.7-0.8-2.7l2.9-5.3c0.5-1,1.7-1.3,2.7-0.8l0,0c1,0.5,1.3,1.7,0.8,2.7 l-2.9,5.3C35.7,106.3,34.5,106.7,33.5,106.2z"/> <path id="_x32__62_" d="M47.6,113.8L47.6,113.8c-1-0.5-1.3-1.7-0.8-2.7l2.9-5.3c0.5-1,1.7-1.3,2.7-0.8l0,0c1,0.5,1.3,1.7,0.8,2.7 l-2.9,5.3C49.7,114,48.5,114.3,47.6,113.8z"/> <path id="_x31__61_" d="M81,101.6c0.4-2.8,0.3-5.8-0.2-8.4c4.5-4.8,8.5-10.3,11.8-16.2c11.4-21,11.6-43.9,2.2-64.4l-0.6-1.4 l-1.4,0.3c-22.3,3.3-41.4,16-52.8,36.9c-3.2,6-5.7,12.3-7.2,18.7c-2.6,1-5,2.4-7.2,4.4c-7.8,6.9-10,17.9-6.3,26.9l19.1-16.9l0.1,0 l2.5,4.3l-2.5,1.3c-0.6,0.3-1,1-1,1.7c0,0.7,0.4,1.4,1,1.7l19.8,10.7c0.6,0.3,1.4,0.3,2-0.1c0.5-0.4,0.9-1.1,0.9-1.8l-0.3-2.8 l4.9-0.3l0.1,0l-3.8,25.2C71.6,119.7,79.5,111.9,81,101.6z M56.4,82.2l-1.2-0.7L66.3,61c0.2-0.4,0.6-0.5,0.9-0.3 c0.4,0.2,0.5,0.6,0.3,0.9L56.4,82.2z M75.8,92.8l-13-7.1L83,48.5c0.2-0.4,0.6-0.5,0.9-0.3c0.4,0.2,0.5,0.6,0.3,0.9l-7.8,14.3 c-0.7,1.2-0.2,2.7,1,3.4s2.7,0.2,3.4-1l8.4-15.6c1.9-3.5,0.7-7.9-2.9-9.9l-12.6-6.8c-3.5-1.9-7.9-0.7-9.9,2.9l-8.4,15.6 c-0.7,1.2-0.2,2.7,1,3.4c1.2,0.7,2.7,0.2,3.4-1l7.8-14.3c0.2-0.4,0.6-0.5,0.9-0.3c0.4,0.2,0.5,0.6,0.3,0.9L48.7,78l-12.9-7 c1.5-7.2,4-14.2,7.5-20.8c10.5-19.4,28-31.2,48.6-34.7c8.3,19.1,7.9,40.1-2.7,59.6C85.6,81.7,81,87.6,75.8,92.8z"/> </g>
</svg>