<!DOCTYPE svg PUBLIC "-//W3C//DTD SVG 1.1//EN" "http://www.w3.org/Graphics/SVG/1.1/DTD/svg11.dtd">
<!-- Uploaded to: SVG Repo, www.svgrepo.com, Transformed by: SVG Repo Mixer Tools -->
<svg width="800px" height="800px" viewBox="0 0 1024 1024" fill="#ffffff" class="icon" version="1.1" xmlns="http://www.w3.org/2000/svg" stroke="#ffffff">
<g id="SVGRepo_bgCarrier" stroke-width="0"/>
<g id="SVGRepo_tracerCarrier" stroke-linecap="round" stroke-linejoin="round"/>
<g id="SVGRepo_iconCarrier">
<path d="M312.012 943.974c-4.422 0-8-3.578-8-7.998v-16a7.994 7.994 0 0 1 8-7.998c4.42 0 8 3.578 8 7.998v16a7.998 7.998 0 0 1-8 7.998zM360.008 940.052c-4.42 0-8-3.576-8-7.998v-15.782a7.994 7.994 0 0 1 8-7.998c4.422 0 8 3.578 8 7.998v15.782a7.994 7.994 0 0 1-8 7.998zM264.014 939.898c-4.42 0-8-3.578-8-8v-15.844a7.994 7.994 0 0 1 8-7.998c4.422 0 8 3.578 8 7.998v15.844c0 4.422-3.578 8-8 8z" fill=""/>
<path d="M312.012 911.978c-65.418 0-83.778-16.468-85.652-18.344a8 8 0 0 1 0-11.312c3.078-3.078 8.046-3.124 11.156-0.14 0.624 0.516 17.078 13.796 74.496 13.796 58.292 0 74.354-13.688 74.51-13.812 3.234-2.876 8.234-2.782 11.218 0.406 2.968 3.14 2.984 8-0.078 11.062-1.874 1.876-20.232 18.344-85.65 18.344zM312.012 959.974c-65.418 0-83.778-16.468-85.652-18.344a7.996 7.996 0 0 1 0-11.31c3.078-3.078 8.046-3.124 11.156-0.14 0.624 0.516 17.078 13.794 74.496 13.794 58.292 0 74.354-13.686 74.51-13.81 3.234-2.876 8.234-2.766 11.218 0.406 2.968 3.14 2.984 8-0.078 11.06-1.874 1.876-20.232 18.344-85.65 18.344z" fill=""/>
<path d="M392.006 895.978a7.92 7.92 0 0 1-5.5-2.204c-0.624-0.516-17.078-13.796-74.496-13.796-58.294 0-74.356 13.688-74.512 13.812-3.218 2.876-8.25 2.782-11.218-0.406-2.968-3.14-2.984-8 0.078-11.062 1.874-1.876 20.234-18.342 85.652-18.342s83.776 16.466 85.65 18.342a8 8 0 0 1-5.654 13.656z" fill=""/>
<path d="M232.016 943.974c-4.42 0-8-3.578-8-7.998v-47.998c0-4.422 3.578-8 8-8 4.422 0 8 3.578 8 8v47.998a7.994 7.994 0 0 1-8 7.998zM392.006 943.974c-4.42 0-8-3.578-8-7.998v-47.998c0-4.422 3.578-8 8-8 4.422 0 8 3.578 8 8v47.998a7.994 7.994 0 0 1-8 7.998zM104.024 943.974c-4.42 0-8-3.578-8-7.998v-16a7.994 7.994 0 0 1 8-7.998c4.422 0 8 3.578 8 7.998v16a7.994 7.994 0 0 1-8 7.998zM152.022 940.052c-4.422 0-8-3.576-8-7.998v-15.782a7.994 7.994 0 0 1 8-7.998c4.42 0 8 3.578 8 7.998v15.782a7.996 7.996 0 0 1-8 7.998zM56.028 939.898c-4.422 0-8-3.578-8-8v-15.844a7.994 7.994 0 0 1 8-7.998c4.42 0 8 3.578 8 7.998v15.844a7.998 7.998 0 0 1-8 8z" fill=""/>
<path d="M104.024 911.978c-65.418 0-83.776-16.468-85.65-18.344a8 8 0 0 1 0-11.312c3.078-3.078 8.046-3.124 11.156-0.14 0.624 0.516 17.078 13.796 74.496 13.796 58.294 0 74.356-13.688 74.512-13.812 3.234-2.876 8.25-2.782 11.218 0.406 2.968 3.14 2.984 8-0.078 11.062-1.878 1.876-20.236 18.344-85.654 18.344zM104.024 959.974c-65.418 0-83.776-16.468-85.65-18.344a7.996 7.996 0 0 1 0-11.31c3.078-3.078 8.046-3.124 11.156-0.14 0.624 0.516 17.078 13.794 74.496 13.794 58.294 0 74.356-13.686 74.512-13.81 3.234-2.876 8.25-2.766 11.218 0.406 2.968 3.14 2.984 8-0.078 11.06-1.878 1.876-20.236 18.344-85.654 18.344z" fill=""/>
<path d="M184.02 895.978a7.92 7.92 0 0 1-5.5-2.204c-0.624-0.516-17.078-13.796-74.496-13.796-58.292 0-74.354 13.688-74.51 13.812-3.218 2.876-8.25 2.782-11.218-0.406-2.968-3.14-2.984-8 0.078-11.062 1.876-1.876 20.232-18.342 85.65-18.342s83.778 16.466 85.652 18.342a8 8 0 0 1-5.656 13.656z" fill=""/>
<path d="M24.03 943.974c-4.422 0-8-3.578-8-7.998v-47.998c0-4.422 3.578-8 8-8 4.42 0 8 3.578 8 8v47.998a7.998 7.998 0 0 1-8 7.998zM184.02 943.974c-4.422 0-8-3.578-8-7.998v-47.998c0-4.422 3.578-8 8-8 4.42 0 8 3.578 8 8v47.998a7.998 7.998 0 0 1-8 7.998z" fill=""/>
<path d="M312.012 831.982c-4.422 0-8-3.578-8-8v-15.998c0-4.422 3.578-8 8-8 4.42 0 8 3.578 8 8v15.998a7.998 7.998 0 0 1-8 8zM360.008 828.06c-4.42 0-8-3.578-8-8v-15.78c0-4.422 3.578-8 8-8 4.422 0 8 3.578 8 8v15.78c0 4.422-3.578 8-8 8zM264.014 827.904c-4.42 0-8-3.578-8-8v-15.842c0-4.422 3.578-8 8-8 4.422 0 8 3.578 8 8v15.842c0 4.422-3.578 8-8 8z" fill=""/>
<path d="M312.012 799.984c-65.418 0-83.778-16.466-85.652-18.342a8 8 0 0 1 0-11.312c3.078-3.078 8.046-3.124 11.156-0.14 0.624 0.516 17.078 13.796 74.496 13.796 58.292 0 74.354-13.688 74.51-13.812 3.234-2.876 8.234-2.782 11.218 0.406 2.968 3.14 2.984 8-0.078 11.062-1.874 1.876-20.232 18.342-85.65 18.342zM312.012 847.982c-65.418 0-83.778-16.468-85.652-18.344a8 8 0 0 1 0-11.312c3.078-3.078 8.046-3.124 11.156-0.14 0.624 0.516 17.078 13.796 74.496 13.796 58.292 0 74.354-13.688 74.51-13.812 3.234-2.86 8.234-2.766 11.218 0.406 2.968 3.14 2.984 8-0.078 11.062-1.874 1.876-20.232 18.344-85.65 18.344z" fill=""/>
<path d="M392.006 783.986a7.92 7.92 0 0 1-5.5-2.204c-0.624-0.516-17.078-13.796-74.496-13.796-58.294 0-74.356 13.688-74.512 13.812-3.218 2.876-8.25 2.782-11.218-0.406-2.968-3.14-2.984-8 0.078-11.062 1.874-1.876 20.234-18.344 85.652-18.344s83.776 16.468 85.65 18.344a8 8 0 0 1-5.654 13.656z" fill=""/>
<path d="M232.016 831.982c-4.42 0-8-3.578-8-8v-47.996c0-4.422 3.578-8 8-8 4.422 0 8 3.578 8 8v47.996c0 4.422-3.578 8-8 8zM392.006 831.982c-4.42 0-8-3.578-8-8v-47.996c0-4.422 3.578-8 8-8 4.422 0 8 3.578 8 8v47.996c0 4.422-3.578 8-8 8z" fill=""/>
<path d="M519.998 943.974c-4.422 0-8-3.578-8-7.998v-16c0-4.42 3.578-7.998 8-7.998s8 3.578 8 7.998v16a7.994 7.994 0 0 1-8 7.998zM567.996 940.052c-4.422 0-8-3.576-8-7.998v-15.782a7.994 7.994 0 0 1 8-7.998 7.994 7.994 0 0 1 7.998 7.998v15.782a7.994 7.994 0 0 1-7.998 7.998zM472.002 939.898c-4.422 0-8-3.578-8-8v-15.844a7.994 7.994 0 0 1 8-7.998c4.42 0 8 3.578 8 7.998v15.844a7.998 7.998 0 0 1-8 8z" fill=""/>
<path d="M519.998 911.978c-65.418 0-83.776-16.468-85.65-18.344a8 8 0 0 1 0-11.312c3.078-3.078 8.046-3.124 11.156-0.14 0.624 0.516 17.078 13.796 74.496 13.796 58.292 0 74.356-13.688 74.512-13.812 3.218-2.876 8.25-2.782 11.218 0.406 2.968 3.14 2.984 8-0.078 11.062-1.876 1.876-20.236 18.344-85.654 18.344zM519.998 959.974c-65.418 0-83.776-16.468-85.65-18.344a7.996 7.996 0 0 1 0-11.31c3.078-3.078 8.046-3.124 11.156-0.14 0.624 0.516 17.078 13.794 74.496 13.794 58.292 0 74.356-13.686 74.512-13.81 3.218-2.876 8.25-2.766 11.218 0.406 2.968 3.14 2.984 8-0.078 11.06-1.876 1.876-20.236 18.344-85.654 18.344z" fill=""/>
<path d="M599.994 895.978a7.92 7.92 0 0 1-5.5-2.204c-0.624-0.516-17.078-13.796-74.496-13.796-58.292 0-74.354 13.688-74.51 13.812-3.234 2.876-8.234 2.782-11.218-0.406-2.968-3.14-2.984-8 0.078-11.062 1.876-1.876 20.232-18.342 85.65-18.342s83.778 16.466 85.652 18.342a8 8 0 0 1-5.656 13.656z" fill=""/>
<path d="M440.004 943.974c-4.422 0-8-3.578-8-7.998v-47.998c0-4.422 3.578-8 8-8 4.42 0 8 3.578 8 8v47.998a7.998 7.998 0 0 1-8 7.998zM599.994 943.974c-4.422 0-8-3.578-8-7.998v-47.998c0-4.422 3.578-8 8-8s8 3.578 8 8v47.998a7.994 7.994 0 0 1-8 7.998z" fill=""/>
<path d="M519.998 831.982c-4.422 0-8-3.578-8-8v-15.998c0-4.422 3.578-8 8-8s8 3.578 8 8v15.998c0 4.422-3.578 8-8 8zM567.996 828.06c-4.422 0-8-3.578-8-8v-15.78c0-4.422 3.578-8 8-8a7.994 7.994 0 0 1 7.998 8v15.78c0 4.422-3.578 8-7.998 8zM472.002 827.904c-4.422 0-8-3.578-8-8v-15.842c0-4.422 3.578-8 8-8 4.42 0 8 3.578 8 8v15.842a7.998 7.998 0 0 1-8 8z" fill=""/>
<path d="M519.998 799.984c-65.418 0-83.776-16.466-85.65-18.342a8 8 0 0 1 0-11.312c3.078-3.078 8.046-3.124 11.156-0.14 0.624 0.516 17.078 13.796 74.496 13.796 58.292 0 74.356-13.688 74.512-13.812 3.218-2.876 8.25-2.782 11.218 0.406 2.968 3.14 2.984 8-0.078 11.062-1.876 1.876-20.236 18.342-85.654 18.342zM519.998 847.982c-65.418 0-83.776-16.468-85.65-18.344a8 8 0 0 1 0-11.312c3.078-3.078 8.046-3.124 11.156-0.14 0.624 0.516 17.078 13.796 74.496 13.796 58.292 0 74.356-13.688 74.512-13.812 3.218-2.86 8.25-2.766 11.218 0.406 2.968 3.14 2.984 8-0.078 11.062-1.876 1.876-20.236 18.344-85.654 18.344z" fill=""/>
<path d="M599.994 783.986a7.92 7.92 0 0 1-5.5-2.204c-0.624-0.516-17.078-13.796-74.496-13.796-58.292 0-74.354 13.688-74.51 13.812-3.234 2.876-8.234 2.782-11.218-0.406-2.968-3.14-2.984-8 0.078-11.062 1.876-1.876 20.232-18.344 85.65-18.344s83.778 16.468 85.652 18.344a8 8 0 0 1-5.656 13.656z" fill=""/>
<path d="M440.004 831.982c-4.422 0-8-3.578-8-8v-47.996c0-4.422 3.578-8 8-8 4.42 0 8 3.578 8 8v47.996a7.998 7.998 0 0 1-8 8zM599.994 831.982c-4.422 0-8-3.578-8-8v-47.996c0-4.422 3.578-8 8-8s8 3.578 8 8v47.996c0 4.422-3.578 8-8 8z" fill=""/>
<path d="M519.998 719.99c-4.422 0-8-3.578-8-8v-16c0-4.422 3.578-8 8-8s8 3.578 8 8v16c0 4.422-3.578 8-8 8zM567.996 716.068c-4.422 0-8-3.578-8-8v-15.782c0-4.422 3.578-8 8-8a7.994 7.994 0 0 1 7.998 8v15.782c0 4.422-3.578 8-7.998 8zM472.002 715.912c-4.422 0-8-3.578-8-8v-15.844c0-4.422 3.578-8 8-8 4.42 0 8 3.578 8 8v15.844a7.998 7.998 0 0 1-8 8z" fill=""/>
<path d="M519.998 687.99c-65.418 0-83.776-16.466-85.65-18.342a7.996 7.996 0 0 1 0-11.31c3.078-3.078 8.046-3.124 11.156-0.14 0.624 0.516 17.078 13.794 74.496 13.794 58.292 0 74.356-13.686 74.512-13.81 3.218-2.876 8.25-2.766 11.218 0.406 2.968 3.138 2.984 7.998-0.078 11.06-1.876 1.876-20.236 18.342-85.654 18.342zM519.998 735.988c-65.418 0-83.776-16.466-85.65-18.342a8 8 0 0 1 0-11.312c3.078-3.078 8.046-3.124 11.156-0.14 0.624 0.516 17.078 13.796 74.496 13.796 58.292 0 74.356-13.688 74.512-13.812 3.218-2.86 8.25-2.766 11.218 0.406 2.968 3.14 2.984 8-0.078 11.062-1.876 1.876-20.236 18.342-85.654 18.342z" fill=""/>
<path d="M599.994 671.992a7.92 7.92 0 0 1-5.5-2.204c-0.624-0.516-17.078-13.794-74.496-13.794-58.292 0-74.354 13.686-74.51 13.81-3.234 2.876-8.234 2.766-11.218-0.406-2.968-3.14-2.984-8 0.078-11.06 1.876-1.876 20.232-18.344 85.65-18.344s83.778 16.468 85.652 18.344a7.996 7.996 0 0 1-5.656 13.654z" fill=""/>
<path d="M440.004 719.99c-4.422 0-8-3.578-8-8v-47.998a7.994 7.994 0 0 1 8-7.998c4.42 0 8 3.578 8 7.998v47.998a7.998 7.998 0 0 1-8 8zM599.994 719.99c-4.422 0-8-3.578-8-8v-47.998c0-4.42 3.578-7.998 8-7.998s8 3.578 8 7.998v47.998c0 4.422-3.578 8-8 8z" fill=""/>
<path d="M727.986 943.974c-4.422 0-8-3.578-8-7.998v-16c0-4.42 3.578-7.998 8-7.998s8 3.578 8 7.998v16a7.994 7.994 0 0 1-8 7.998zM775.982 940.052c-4.422 0-8-3.576-8-7.998v-15.782c0-4.42 3.578-7.998 8-7.998s8 3.578 8 7.998v15.782a7.994 7.994 0 0 1-8 7.998zM679.988 939.898a7.994 7.994 0 0 1-7.998-8v-15.844a7.994 7.994 0 0 1 7.998-7.998c4.422 0 8 3.578 8 7.998v15.844c0 4.422-3.578 8-8 8z" fill=""/>
<path d="M727.986 911.978c-65.418 0-83.778-16.468-85.652-18.344a8 8 0 0 1 0-11.312c3.078-3.078 8.046-3.124 11.156-0.14 0.624 0.516 17.078 13.796 74.496 13.796 58.292 0 74.356-13.688 74.512-13.812 3.216-2.876 8.248-2.782 11.216 0.406 2.968 3.14 2.984 8-0.078 11.062-1.874 1.876-20.232 18.344-85.65 18.344zM727.986 959.974c-65.418 0-83.778-16.468-85.652-18.344a7.996 7.996 0 0 1 0-11.31c3.078-3.078 8.046-3.124 11.156-0.14 0.624 0.516 17.078 13.794 74.496 13.794 58.292 0 74.356-13.686 74.512-13.81 3.216-2.876 8.248-2.766 11.216 0.406 2.968 3.14 2.984 8-0.078 11.06-1.874 1.876-20.232 18.344-85.65 18.344z" fill=""/>
<path d="M807.98 895.978a7.912 7.912 0 0 1-5.498-2.204c-0.624-0.516-17.078-13.796-74.496-13.796-58.292 0-74.356 13.688-74.512 13.812-3.234 2.876-8.25 2.782-11.218-0.406-2.968-3.14-2.984-8 0.078-11.062 1.876-1.876 20.234-18.342 85.652-18.342s83.776 16.466 85.65 18.342a8 8 0 0 1-5.656 13.656z" fill=""/>
<path d="M647.99 943.974c-4.422 0-8-3.578-8-7.998v-47.998c0-4.422 3.578-8 8-8s8 3.578 8 8v47.998a7.994 7.994 0 0 1-8 7.998zM807.98 943.974a7.994 7.994 0 0 1-7.998-7.998v-47.998c0-4.422 3.578-8 7.998-8 4.422 0 8 3.578 8 8v47.998a7.994 7.994 0 0 1-8 7.998z" fill=""/>
<path d="M727.986 831.982c-4.422 0-8-3.578-8-8v-15.998c0-4.422 3.578-8 8-8s8 3.578 8 8v15.998c0 4.422-3.578 8-8 8zM775.982 828.06c-4.422 0-8-3.578-8-8v-15.78c0-4.422 3.578-8 8-8s8 3.578 8 8v15.78c0 4.422-3.578 8-8 8zM679.988 827.904a7.994 7.994 0 0 1-7.998-8v-15.842c0-4.422 3.578-8 7.998-8 4.422 0 8 3.578 8 8v15.842c0 4.422-3.578 8-8 8z" fill=""/>
<path d="M727.986 799.984c-65.418 0-83.778-16.466-85.652-18.342a8 8 0 0 1 0-11.312c3.078-3.078 8.046-3.124 11.156-0.14 0.624 0.516 17.078 13.796 74.496 13.796 58.292 0 74.356-13.688 74.512-13.812 3.216-2.876 8.248-2.782 11.216 0.406 2.968 3.14 2.984 8-0.078 11.062-1.874 1.876-20.232 18.342-85.65 18.342zM727.986 847.982c-65.418 0-83.778-16.468-85.652-18.344a8 8 0 0 1 0-11.312c3.078-3.078 8.046-3.124 11.156-0.14 0.624 0.516 17.078 13.796 74.496 13.796 58.292 0 74.356-13.688 74.512-13.812 3.216-2.86 8.248-2.766 11.216 0.406 2.968 3.14 2.984 8-0.078 11.062-1.874 1.876-20.232 18.344-85.65 18.344z" fill=""/>
<path d="M807.98 783.986a7.912 7.912 0 0 1-5.498-2.204c-0.624-0.516-17.078-13.796-74.496-13.796-58.292 0-74.356 13.688-74.512 13.812-3.234 2.876-8.25 2.782-11.218-0.406-2.968-3.14-2.984-8 0.078-11.062 1.876-1.876 20.234-18.344 85.652-18.344s83.776 16.468 85.65 18.344a8 8 0 0 1-5.656 13.656z" fill=""/>
<path d="M647.99 831.982c-4.422 0-8-3.578-8-8v-47.996c0-4.422 3.578-8 8-8s8 3.578 8 8v47.996c0 4.422-3.578 8-8 8zM807.98 831.982a7.994 7.994 0 0 1-7.998-8v-47.996c0-4.422 3.578-8 7.998-8 4.422 0 8 3.578 8 8v47.996c0 4.422-3.578 8-8 8z" fill=""/>
<path d="M727.986 719.99c-4.422 0-8-3.578-8-8v-16c0-4.422 3.578-8 8-8s8 3.578 8 8v16c0 4.422-3.578 8-8 8zM775.982 716.068c-4.422 0-8-3.578-8-8v-15.782c0-4.422 3.578-8 8-8s8 3.578 8 8v15.782c0 4.422-3.578 8-8 8zM679.988 715.912a7.994 7.994 0 0 1-7.998-8v-15.844c0-4.422 3.578-8 7.998-8 4.422 0 8 3.578 8 8v15.844c0 4.422-3.578 8-8 8z" fill=""/>
<path d="M727.986 687.99c-65.418 0-83.778-16.466-85.652-18.342a7.996 7.996 0 0 1 0-11.31c3.078-3.078 8.046-3.124 11.156-0.14 0.624 0.516 17.078 13.794 74.496 13.794 58.292 0 74.356-13.686 74.512-13.81 3.216-2.876 8.248-2.766 11.216 0.406 2.968 3.138 2.984 7.998-0.078 11.06-1.874 1.876-20.232 18.342-85.65 18.342zM727.986 735.988c-65.418 0-83.778-16.466-85.652-18.342a8 8 0 0 1 0-11.312c3.078-3.078 8.046-3.124 11.156-0.14 0.624 0.516 17.078 13.796 74.496 13.796 58.292 0 74.356-13.688 74.512-13.812 3.216-2.86 8.248-2.766 11.216 0.406 2.968 3.14 2.984 8-0.078 11.062-1.874 1.876-20.232 18.342-85.65 18.342z" fill=""/>
<path d="M807.98 671.992a7.912 7.912 0 0 1-5.498-2.204c-0.624-0.516-17.078-13.794-74.496-13.794-58.292 0-74.356 13.686-74.512 13.81-3.234 2.876-8.25 2.766-11.218-0.406-2.968-3.14-2.984-8 0.078-11.06 1.876-1.876 20.234-18.344 85.652-18.344s83.776 16.468 85.65 18.344a7.996 7.996 0 0 1-5.656 13.654z" fill=""/>
<path d="M647.99 719.99c-4.422 0-8-3.578-8-8v-47.998c0-4.42 3.578-7.998 8-7.998s8 3.578 8 7.998v47.998c0 4.422-3.578 8-8 8zM807.98 719.99a7.994 7.994 0 0 1-7.998-8v-47.998a7.994 7.994 0 0 1 7.998-7.998c4.422 0 8 3.578 8 7.998v47.998c0 4.422-3.578 8-8 8z" fill=""/>
<path d="M727.986 607.996c-4.422 0-8-3.578-8-8v-15.998c0-4.422 3.578-8 8-8s8 3.578 8 8v15.998c0 4.422-3.578 8-8 8zM775.982 604.074c-4.422 0-8-3.578-8-8v-15.78c0-4.422 3.578-8 8-8s8 3.578 8 8v15.78c0 4.422-3.578 8-8 8zM679.988 603.918a7.994 7.994 0 0 1-7.998-7.998v-15.844c0-4.422 3.578-8 7.998-8 4.422 0 8 3.578 8 8v15.844a7.994 7.994 0 0 1-8 7.998z" fill=""/>
<path d="M727.986 575.998c-65.418 0-83.778-16.468-85.652-18.344a7.996 7.996 0 0 1 0-11.31c3.078-3.078 8.046-3.124 11.156-0.14 0.624 0.516 17.078 13.794 74.496 13.794 58.292 0 74.356-13.686 74.512-13.81 3.216-2.876 8.248-2.766 11.216 0.406 2.968 3.14 2.984 8-0.078 11.06-1.874 1.876-20.232 18.344-85.65 18.344zM727.986 623.994c-65.418 0-83.778-16.466-85.652-18.342a7.996 7.996 0 0 1 0-11.31c3.078-3.078 8.046-3.124 11.156-0.14 0.624 0.516 17.078 13.794 74.496 13.794 58.292 0 74.356-13.686 74.512-13.81 3.216-2.86 8.248-2.766 11.216 0.406 2.968 3.138 2.984 7.998-0.078 11.06-1.874 1.876-20.232 18.342-85.65 18.342z" fill=""/>
<path d="M807.98 559.998a7.912 7.912 0 0 1-5.498-2.204c-0.624-0.516-17.078-13.794-74.496-13.794-58.292 0-74.356 13.686-74.512 13.81-3.234 2.876-8.25 2.766-11.218-0.406-2.968-3.138-2.984-7.998 0.078-11.06 1.876-1.876 20.234-18.342 85.652-18.342s83.776 16.466 85.65 18.342a7.996 7.996 0 0 1-5.656 13.654z" fill=""/>
<path d="M647.99 607.996c-4.422 0-8-3.578-8-8V552c0-4.422 3.578-8 8-8s8 3.578 8 8v47.996c0 4.422-3.578 8-8 8zM807.98 607.996a7.994 7.994 0 0 1-7.998-8V552c0-4.422 3.578-8 7.998-8 4.422 0 8 3.578 8 8v47.996c0 4.422-3.578 8-8 8z" fill=""/>
<path d="M935.972 943.974a7.994 7.994 0 0 1-7.998-7.998v-16a7.994 7.994 0 0 1 7.998-7.998c4.422 0 8 3.578 8 7.998v16a7.994 7.994 0 0 1-8 7.998zM983.97 940.052c-4.422 0-8-3.576-8-7.998v-15.782c0-4.42 3.578-7.998 8-7.998s8 3.578 8 7.998v15.782a7.994 7.994 0 0 1-8 7.998zM887.976 939.898c-4.422 0-8-3.578-8-8v-15.844a7.994 7.994 0 0 1 8-7.998 7.994 7.994 0 0 1 7.998 7.998v15.844c0 4.422-3.578 8-7.998 8z" fill=""/>
<path d="M935.972 911.978c-65.418 0-83.776-16.468-85.65-18.344a8 8 0 0 1 0-11.312c3.078-3.078 8.046-3.124 11.156-0.14 0.624 0.516 17.076 13.796 74.494 13.796 58.294 0 74.356-13.688 74.512-13.812 3.218-2.876 8.25-2.782 11.216 0.406 2.968 3.14 2.984 8-0.078 11.062-1.872 1.876-20.232 18.344-85.65 18.344zM935.972 959.974c-65.418 0-83.776-16.468-85.65-18.344a7.996 7.996 0 0 1 0-11.31c3.078-3.078 8.046-3.124 11.156-0.14 0.624 0.516 17.076 13.794 74.494 13.794 58.294 0 74.356-13.686 74.512-13.81 3.218-2.876 8.25-2.766 11.216 0.406 2.968 3.14 2.984 8-0.078 11.06-1.872 1.876-20.232 18.344-85.65 18.344z" fill=""/>
<path d="M1015.968 895.978a7.92 7.92 0 0 1-5.5-2.204c-0.624-0.516-17.076-13.796-74.496-13.796-58.292 0-74.354 13.688-74.51 13.812-3.234 2.876-8.234 2.782-11.218-0.406-2.968-3.14-2.984-8 0.078-11.062 1.876-1.876 20.232-18.342 85.65-18.342s83.778 16.466 85.65 18.342a8 8 0 0 1-5.654 13.656z" fill=""/>
<path d="M855.978 943.974c-4.422 0-8-3.578-8-7.998v-47.998c0-4.422 3.578-8 8-8s8 3.578 8 8v47.998a7.994 7.994 0 0 1-8 7.998zM1015.968 943.974c-4.422 0-8-3.578-8-7.998v-47.998c0-4.422 3.578-8 8-8a7.994 7.994 0 0 1 7.998 8v47.998a7.994 7.994 0 0 1-7.998 7.998z" fill=""/>
<path d="M935.972 831.982a7.994 7.994 0 0 1-7.998-8v-15.998c0-4.422 3.578-8 7.998-8 4.422 0 8 3.578 8 8v15.998c0 4.422-3.578 8-8 8zM983.97 828.06c-4.422 0-8-3.578-8-8v-15.78c0-4.422 3.578-8 8-8s8 3.578 8 8v15.78c0 4.422-3.578 8-8 8zM887.976 827.904c-4.422 0-8-3.578-8-8v-15.842c0-4.422 3.578-8 8-8a7.994 7.994 0 0 1 7.998 8v15.842c0 4.422-3.578 8-7.998 8z" fill=""/>
<path d="M935.972 799.984c-65.418 0-83.776-16.466-85.65-18.342a8 8 0 0 1 0-11.312c3.078-3.078 8.046-3.124 11.156-0.14 0.624 0.516 17.076 13.796 74.494 13.796 58.294 0 74.356-13.688 74.512-13.812 3.218-2.876 8.25-2.782 11.216 0.406 2.968 3.14 2.984 8-0.078 11.062-1.872 1.876-20.232 18.342-85.65 18.342zM935.972 847.982c-65.418 0-83.776-16.468-85.65-18.344a8 8 0 0 1 0-11.312c3.078-3.078 8.046-3.124 11.156-0.14 0.624 0.516 17.076 13.796 74.494 13.796 58.294 0 74.356-13.688 74.512-13.812 3.218-2.86 8.25-2.766 11.216 0.406 2.968 3.14 2.984 8-0.078 11.062-1.872 1.876-20.232 18.344-85.65 18.344z" fill=""/>
<path d="M1015.968 783.986a7.92 7.92 0 0 1-5.5-2.204c-0.624-0.516-17.076-13.796-74.496-13.796-58.292 0-74.354 13.688-74.51 13.812-3.234 2.876-8.234 2.782-11.218-0.406-2.968-3.14-2.984-8 0.078-11.062 1.876-1.876 20.232-18.344 85.65-18.344s83.778 16.468 85.65 18.344a8 8 0 0 1-5.654 13.656z" fill=""/>
<path d="M855.978 831.982c-4.422 0-8-3.578-8-8v-47.996c0-4.422 3.578-8 8-8s8 3.578 8 8v47.996c0 4.422-3.578 8-8 8zM1015.968 831.982c-4.422 0-8-3.578-8-8v-47.996c0-4.422 3.578-8 8-8a7.994 7.994 0 0 1 7.998 8v47.996c0 4.422-3.578 8-7.998 8z" fill=""/>
<path d="M935.972 719.99a7.994 7.994 0 0 1-7.998-8v-16c0-4.422 3.578-8 7.998-8 4.422 0 8 3.578 8 8v16c0 4.422-3.578 8-8 8zM983.97 716.068c-4.422 0-8-3.578-8-8v-15.782c0-4.422 3.578-8 8-8s8 3.578 8 8v15.782c0 4.422-3.578 8-8 8zM887.976 715.912c-4.422 0-8-3.578-8-8v-15.844c0-4.422 3.578-8 8-8a7.994 7.994 0 0 1 7.998 8v15.844c0 4.422-3.578 8-7.998 8z" fill=""/>
<path d="M935.972 687.99c-65.418 0-83.776-16.466-85.65-18.342a7.996 7.996 0 0 1 0-11.31c3.078-3.078 8.046-3.124 11.156-0.14 0.624 0.516 17.076 13.794 74.494 13.794 58.294 0 74.356-13.686 74.512-13.81 3.218-2.876 8.25-2.766 11.216 0.406 2.968 3.138 2.984 7.998-0.078 11.06-1.872 1.876-20.232 18.342-85.65 18.342zM935.972 735.988c-65.418 0-83.776-16.466-85.65-18.342a8 8 0 0 1 0-11.312c3.078-3.078 8.046-3.124 11.156-0.14 0.624 0.516 17.076 13.796 74.494 13.796 58.294 0 74.356-13.688 74.512-13.812 3.218-2.86 8.25-2.766 11.216 0.406 2.968 3.14 2.984 8-0.078 11.062-1.872 1.876-20.232 18.342-85.65 18.342z" fill=""/>
<path d="M1015.968 671.992a7.92 7.92 0 0 1-5.5-2.204c-0.624-0.516-17.076-13.794-74.496-13.794-58.292 0-74.354 13.686-74.51 13.81-3.234 2.876-8.234 2.766-11.218-0.406-2.968-3.14-2.984-8 0.078-11.06 1.876-1.876 20.232-18.344 85.65-18.344s83.778 16.468 85.65 18.344a7.996 7.996 0 0 1-5.654 13.654z" fill=""/>
<path d="M855.978 719.99c-4.422 0-8-3.578-8-8v-47.998c0-4.42 3.578-7.998 8-7.998s8 3.578 8 7.998v47.998c0 4.422-3.578 8-8 8zM1015.968 719.99c-4.422 0-8-3.578-8-8v-47.998a7.994 7.994 0 0 1 8-7.998 7.994 7.994 0 0 1 7.998 7.998v47.998c0 4.422-3.578 8-7.998 8z" fill=""/>
<path d="M935.972 607.996a7.994 7.994 0 0 1-7.998-8v-15.998c0-4.422 3.578-8 7.998-8 4.422 0 8 3.578 8 8v15.998c0 4.422-3.578 8-8 8zM983.97 604.074c-4.422 0-8-3.578-8-8v-15.78c0-4.422 3.578-8 8-8s8 3.578 8 8v15.78c0 4.422-3.578 8-8 8zM887.976 603.918c-4.422 0-8-3.578-8-7.998v-15.844c0-4.422 3.578-8 8-8a7.994 7.994 0 0 1 7.998 8v15.844a7.994 7.994 0 0 1-7.998 7.998z" fill=""/>
<path d="M935.972 575.998c-65.418 0-83.776-16.468-85.65-18.344a7.996 7.996 0 0 1 0-11.31c3.078-3.078 8.046-3.124 11.156-0.14 0.624 0.516 17.076 13.794 74.494 13.794 58.294 0 74.356-13.686 74.512-13.81 3.218-2.876 8.25-2.766 11.216 0.406 2.968 3.14 2.984 8-0.078 11.06-1.872 1.876-20.232 18.344-85.65 18.344zM935.972 623.994c-65.418 0-83.776-16.466-85.65-18.342a7.996 7.996 0 0 1 0-11.31c3.078-3.078 8.046-3.124 11.156-0.14 0.624 0.516 17.076 13.794 74.494 13.794 58.294 0 74.356-13.686 74.512-13.81 3.218-2.86 8.25-2.766 11.216 0.406 2.968 3.138 2.984 7.998-0.078 11.06-1.872 1.876-20.232 18.342-85.65 18.342z" fill=""/>
<path d="M1015.968 559.998a7.92 7.92 0 0 1-5.5-2.204c-0.624-0.516-17.076-13.794-74.496-13.794-58.292 0-74.354 13.686-74.51 13.81-3.234 2.876-8.234 2.766-11.218-0.406-2.968-3.138-2.984-7.998 0.078-11.06 1.876-1.876 20.232-18.342 85.65-18.342s83.778 16.466 85.65 18.342a7.996 7.996 0 0 1-5.654 13.654z" fill=""/>
<path d="M855.978 607.996c-4.422 0-8-3.578-8-8V552c0-4.422 3.578-8 8-8s8 3.578 8 8v47.996c0 4.422-3.578 8-8 8zM1015.968 607.996c-4.422 0-8-3.578-8-8V552c0-4.422 3.578-8 8-8a7.994 7.994 0 0 1 7.998 8v47.996c0 4.422-3.578 8-7.998 8z" fill=""/>
<path d="M903.974 224.028a7.96 7.96 0 0 1-5.266-1.984 7.976 7.976 0 0 1-0.75-11.28l111.994-127.992c2.906-3.344 7.968-3.64 11.28-0.75a7.976 7.976 0 0 1 0.75 11.28l-111.992 127.992a7.956 7.956 0 0 1-6.016 2.734z" fill=""/>
<path d="M1015.984 96.036c-0.266 0-0.546-0.016-0.812-0.046l-159.99-16a7.984 7.984 0 0 1-7.156-8.75c0.438-4.39 4.454-7.704 8.75-7.156l159.99 16a7.984 7.984 0 0 1 7.154 8.75 7.992 7.992 0 0 1-7.936 7.202zM72.026 703.99a7.98 7.98 0 0 1-6.358-3.14 8.008 8.008 0 0 1 1.5-11.218C551.558 320.1 881.274 162.344 884.554 160.796a8.02 8.02 0 0 1 10.654 3.812 8.004 8.004 0 0 1-3.81 10.656c-3.266 1.546-331.622 158.678-814.514 527.084a7.956 7.956 0 0 1-4.858 1.642zM8.03 623.994a8.004 8.004 0 0 1-6.592-3.468 8.004 8.004 0 0 1 2.062-11.124C510.312 260.978 865.416 114.066 868.946 112.628a8 8 0 1 1 6.062 14.812c-3.516 1.438-357.182 147.788-862.448 495.148a7.972 7.972 0 0 1-4.53 1.406z" fill=""/>
<path d="M72.042 703.99c-0.532 0-1.062-0.046-1.578-0.156a7.98 7.98 0 0 1-6.28-9.406l16-79.994c0.876-4.36 5.282-7.156 9.406-6.282a7.98 7.98 0 0 1 6.28 9.406l-16 79.994a7.994 7.994 0 0 1-7.828 6.438z" fill=""/>
<path d="M88.026 623.994H8.03c-4.42 0-8-3.578-8-7.998 0-4.422 3.578-8 8-8h79.996c4.42 0 8 3.578 8 8a7.998 7.998 0 0 1-8 7.998z" fill=""/>
<path d="M935.972 480.012c-48.512 0-87.994-39.482-87.994-87.994 0-48.514 39.482-87.98 87.994-87.98 48.514 0 87.994 39.466 87.994 87.98 0 48.512-39.48 87.994-87.994 87.994z m0-159.974c-39.702 0-71.994 32.294-71.994 71.98 0 39.7 32.292 71.996 71.994 71.996s71.996-32.294 71.996-71.996c0-39.686-32.294-71.98-71.996-71.98z" fill=""/>
<path d="M935.972 512.01c-48.512 0-87.994-39.482-87.994-87.994 0-4.422 3.578-8 8-8s8 3.578 8 8c0 39.7 32.292 71.996 71.994 71.996s71.996-32.294 71.996-71.996c0-4.422 3.578-8 8-8a7.994 7.994 0 0 1 7.998 8c0 48.512-39.48 87.994-87.994 87.994z" fill=""/>
<path d="M855.978 432.014c-4.422 0-8-3.578-8-8v-31.998c0-4.422 3.578-8 8-8s8 3.578 8 8v31.998c0 4.422-3.578 8-8 8zM1015.968 432.014c-4.422 0-8-3.578-8-8v-31.998c0-4.422 3.578-8 8-8a7.994 7.994 0 0 1 7.998 8v31.998c0 4.422-3.578 8-7.998 8zM983.97 496.01c-4.422 0-8-3.578-8-8v-31.982c0-4.422 3.578-8 8-8s8 3.578 8 8v31.982c0 4.422-3.578 8-8 8zM935.972 512.01a7.994 7.994 0 0 1-7.998-8v-31.998c0-4.42 3.578-8 7.998-8 4.422 0 8 3.578 8 8v31.998c0 4.422-3.578 8-8 8zM887.992 496.01c-4.422 0-8-3.578-8-8v-31.982c0-4.422 3.578-8 8-8a7.994 7.994 0 0 1 7.998 8v31.982c0 4.422-3.578 8-7.998 8zM935.972 432.014a7.994 7.994 0 0 1-7.998-8V360.02c0-4.422 3.578-8 7.998-8 4.422 0 8 3.578 8 8v63.996a7.994 7.994 0 0 1-8 7.998z" fill=""/>
</g>
</svg>