<?xml version="1.0" encoding="utf-8"?><!-- Uploaded to: SVG Repo, www.svgrepo.com, Generator: SVG Repo Mixer Tools -->
<svg width="800px" height="800px" viewBox="0 0 24 24" fill="none" xmlns="http://www.w3.org/2000/svg">
<path d="M12.1992 12C14.9606 12 17.1992 9.76142 17.1992 7C17.1992 4.23858 14.9606 2 12.1992 2C9.43779 2 7.19922 4.23858 7.19922 7C7.19922 9.76142 9.43779 12 12.1992 12Z" stroke="#000000" stroke-width="1.5" stroke-linecap="round" stroke-linejoin="round"/>
<path d="M21.5902 16.35L16.5002 21.44C15.9902 21.94 14.5002 22.1799 14.1502 21.8399C14.0173 21.4468 13.9851 21.0265 14.0567 20.6177C14.1284 20.2088 14.3015 19.8246 14.5602 19.5L19.6502 14.4C19.915 14.1767 20.254 14.0613 20.6001 14.0764C20.9461 14.0915 21.2738 14.2361 21.518 14.4817C21.7623 14.7272 21.9053 15.0557 21.9187 15.4018C21.932 15.7479 21.8148 16.0863 21.5902 16.35V16.35Z" stroke="#000000" stroke-width="1.5" stroke-linecap="round" stroke-linejoin="round"/>
<path d="M3 22C3.57038 20.0332 4.74795 18.2971 6.36438 17.0399C7.98081 15.7827 9.95335 15.0687 12 15" stroke="#000000" stroke-width="1.5" stroke-linecap="round" stroke-linejoin="round"/>
</svg>