<?xml version="1.0" encoding="iso-8859-1"?>
<!-- Uploaded to: SVG Repo, www.svgrepo.com, Generator: SVG Repo Mixer Tools -->
<svg fill="#000000" height="800px" width="800px" version="1.1" id="Layer_1" xmlns="http://www.w3.org/2000/svg" xmlns:xlink="http://www.w3.org/1999/xlink" 
	 viewBox="0 0 260.629 260.629" xml:space="preserve">
<g>
	<g>
		<g>
			<path d="M227.26,200.045c-4.688-3.204-10.156-3.248-14.272-0.12c-2.332,1.772-3.964,4.232-4.724,7.108
				c-4.168,15.892,8.504,28.228,12.116,29.944c1.888,0.9,3.76,1.34,5.556,1.34c3.452,0,6.592-1.64,8.92-4.804
				c1.004-1.368,1.832-2.956,2.4-4.592C240.788,218.769,236.488,206.357,227.26,200.045z M234.048,227.809
				c-0.456,1.324-1.124,2.596-1.928,3.692c-2.564,3.488-6.216,4.336-10.272,2.408c-2.688-1.276-13.928-12.124-10.288-26.008
				c0.564-2.136,1.768-3.956,3.488-5.264c1.432-1.088,3.076-1.632,4.78-1.632c1.82,0,3.716,0.62,5.516,1.848
				C233.348,208.329,237.088,219.057,234.048,227.809z"/>
			<path d="M231.832,193.877c-6.724-4.776-15.26-5.296-21.756-1.34c-1.7,1.036-3.124,2.34-4.5,3.62
				c-0.84-2.856-1.664-5.72-2.488-8.58c-1.972-6.836-4.016-13.908-6.216-20.82c-0.188-0.592-0.38-1.18-0.568-1.772
				c16.08-67.54,14.42-84.052,12.96-88.008c-0.128-0.356-0.292-0.7-0.504-1.132l-1.884-4.044l-1.528,3.4
				c-0.308,0.684-13.936,41.2-18.74,55.552c-0.252,0.764-0.46,1.416-0.664,2.044c-3.28-10.176-6.536-20.364-9.824-30.54
				l-6.772-20.956c-0.396-1.232-0.848-2.452-1.304-3.668l-1.52-4.172l-1.884,1.752c-0.22,0.2-0.548,0.504-2.508,6.22
				c-4.02,11.744,6.016,55.74,11.408,79.376l0.948,4.168c0.184,0.808,0.572,1.828,1.536,2.616c-1.38,4.7-2.928,9.876-4.488,15.076
				c-1.448,4.84-2.896,9.676-4.2,14.092c-3.048-3.144-6.144-4.856-9.768-5.456c-7.764-1.284-14.68,1.324-21.068,7.992
				c-3.748,3.908-6.388,8.6-8.08,14.352c-2.296,7.828-1.848,15.396,1.376,23.144c1.608,3.872,6.56,7.4,6.608,7.432
				c3.2,2.016,6.588,3.024,10.072,3.024c3.096,0,6.268-0.804,9.428-2.412c7.872-4,13.084-10.548,15.932-20.012
				c3.268-10.844,6.416-21.72,9.564-32.592l4.52-15.56c0.184-0.62,0.376-1.284,0.572-1.952c4.804,16.456,9.612,32.916,14.528,49.344
				c2.496,8.34,6.944,14.396,13.596,18.5c3.728,2.3,7.476,3.468,11.264,3.468c1.076,0,2.152-0.092,3.232-0.284
				c3.268-0.888,5.092-1.508,7.256-2.864c3.796-2.412,6.48-6,8.2-10.968C249.1,218.877,243.504,202.165,231.832,193.877z
				 M189.836,131.829c4.944-14.788,13.196-39.284,16.82-49.984c0.46,7.18-0.668,26.632-12.38,76.848
				c-2.136-6.68-4.296-13.356-6.444-20.032C188.008,137.629,189.456,132.961,189.836,131.829z M182.664,175.717l-4.528,15.572
				c-3.14,10.864-6.284,21.724-9.552,32.56c-2.572,8.528-7.22,14.408-14.216,17.964c-5.668,2.884-11.092,2.72-16.104-0.432
				c-0.8-0.56-4.276-3.368-5.324-5.888c-2.912-7-3.32-13.832-1.248-20.88c1.532-5.216,3.912-9.456,7.264-12.96
				c5.628-5.872,11.372-8.088,18.06-6.988c3.612,0.596,6.532,2.572,9.756,6.608l2.044,2.556l0.916-3.144
				c1.508-5.16,3.284-11.092,5.068-17.04c1.508-5.048,3.012-10.072,4.364-14.66c0.572,0.196,1.148,0.384,1.72,0.588
				c1.08,0.384,2.164,0.756,3.256,1.1C183.68,172.257,183.136,174.105,182.664,175.717z M241.368,230.809
				c-1.46,4.216-3.688,7.228-6.8,9.204c-1.8,1.128-3.344,1.648-6.18,2.424c-3.896,0.664-7.924-0.26-11.972-2.76
				c-5.916-3.652-9.884-9.076-12.128-16.584c-5.22-17.42-10.312-34.872-15.408-52.332c-0.488-1.66-1.46-2.632-3.16-3.144
				c-1.248-0.376-2.468-0.812-3.696-1.248c-1.12-0.4-2.248-0.8-3.388-1.16c-0.528-0.164-0.664-0.276-0.824-0.984l-0.952-4.176
				c-4.552-19.956-15.212-66.688-11.504-77.516c0.12-0.356,0.264-0.768,0.42-1.2c0.116,0.336,0.232,0.672,0.34,1.008l6.768,20.96
				c6.944,21.484,13.892,42.972,20.744,64.484c2.188,6.868,4.22,13.916,6.188,20.732c0.936,3.248,1.876,6.496,2.828,9.736
				c0.14,0.472,0.292,0.932,0.472,1.484l0.788,2.412l1.932-1.648c0.648-0.556,1.28-1.144,1.916-1.736
				c1.352-1.252,2.628-2.436,4.084-3.324h0.004c5.328-3.256,12.396-2.78,18.016,1.208
				C240.368,204.109,245.42,219.113,241.368,230.809z"/>
			<path d="M147.152,200.421c-4.92,2.704-8.428,6.904-10.72,12.836c-2.96,7.672-2.632,14.636,0.98,20.7
				c2.144,3.6,5.38,5.468,9.172,5.468c2.004,0,4.168-0.524,6.408-1.588c4.264-2.028,9.216-8.576,10.616-12.016
				c3.304-8.116,3.128-15.144-0.536-21.476C159.696,198.505,153.444,196.965,147.152,200.421z M160.46,224.537
				c-1.196,2.928-5.672,8.676-8.928,10.228c-2.816,1.336-8.02,2.78-11.196-2.552c-3.092-5.192-3.332-10.992-0.732-17.736
				c1.988-5.156,4.996-8.78,9.188-11.084c1.708-0.936,3.356-1.4,4.884-1.4c2.64,0,4.908,1.376,6.452,4.048
				C163.236,211.413,163.34,217.461,160.46,224.537z"/>
			<path d="M183.492,153.377c-2.604-0.136-4.812,1.872-4.92,4.312c-0.048,1.14,0.364,2.236,1.16,3.084
				c0.86,0.916,2.104,1.46,3.416,1.488c0.04,0,0.08,0,0.116,0c2.552,0,4.692-1.912,4.8-4.312c0.052-1.136-0.36-2.232-1.152-3.084
				C186.052,153.949,184.804,153.405,183.492,153.377z M180.836,157.789c0.056-1.196,1.188-2.148,2.54-2.148c0.02,0,0.044,0,0.064,0
				c0.26,0.008,0.5,0.084,0.74,0.16l-3.14,2.876C180.908,158.393,180.824,158.097,180.836,157.789z M183.196,159.997
				c-0.26-0.004-0.5-0.084-0.74-0.16l3.14-2.876c0.132,0.28,0.216,0.576,0.2,0.888C185.74,159.065,184.488,159.965,183.196,159.997z
				"/>
			<path d="M67.656,221.157h-4.66c-1.328,0-2.568,0.664-3.304,1.768c-1.936,2.908-5.168,4.644-8.652,4.644
				c-0.748,0-1.512-0.08-2.272-0.236c-3.82-0.792-6.964-3.868-7.828-7.648c-0.744-3.256-0.044-6.44,1.972-8.968
				c1.984-2.488,4.948-3.916,8.128-3.916c3.48,0,6.712,1.736,8.648,4.644c0.736,1.104,1.976,1.768,3.304,1.768h4.66
				c2.192,0,3.968-1.776,3.968-3.968v-24.796c0-2.192-1.776-3.968-3.968-3.968h-4.66c-1.328,0-2.568,0.664-3.304,1.768
				c-1.936,2.908-5.168,4.644-8.648,4.644c-0.752,0-1.516-0.08-2.272-0.236c-3.82-0.792-6.964-3.868-7.828-7.648
				c-0.744-3.256-0.04-6.44,1.972-8.968c1.984-2.488,4.948-3.916,8.128-3.916c3.48,0,6.712,1.736,8.648,4.644
				c0.736,1.104,1.976,1.768,3.304,1.768h4.66c2.192,0,3.968-1.776,3.968-3.968v-24.796c0-2.192-1.776-3.968-3.968-3.968h-4.66
				c-1.328,0-2.568,0.664-3.304,1.768c-1.936,2.908-5.168,4.644-8.648,4.644c-0.752,0-1.516-0.08-2.272-0.236
				c-3.82-0.792-6.964-3.868-7.828-7.648c-0.744-3.256-0.044-6.44,1.972-8.968c1.984-2.488,4.948-3.916,8.128-3.916
				c3.48,0,6.712,1.736,8.648,4.644c0.736,1.104,1.976,1.768,3.304,1.768h4.66c2.192,0,3.968-1.776,3.968-3.968v-24.796
				c0-2.192-1.776-3.968-3.968-3.968h-4.66c-1.328,0-2.568,0.664-3.304,1.768c-1.936,2.908-5.168,4.644-8.648,4.644
				c-0.752,0-1.512-0.08-2.272-0.236c-3.82-0.792-6.964-3.868-7.828-7.648c-0.744-3.256-0.044-6.44,1.972-8.968
				c1.984-2.488,4.948-3.916,8.128-3.916c3.48,0,6.712,1.736,8.648,4.644c0.736,1.104,1.976,1.768,3.304,1.768h4.66
				c2.192,0,3.968-1.776,3.968-3.968V62.421c0-2.192-1.776-3.968-3.968-3.968h-4.66c-1.328,0-2.568,0.664-3.304,1.768
				c-1.936,2.908-5.168,4.644-8.648,4.644c-0.752,0-1.516-0.08-2.272-0.236c-3.82-0.792-6.964-3.868-7.828-7.648
				c-0.744-3.256-0.044-6.44,1.972-8.968c1.984-2.488,4.948-3.916,8.128-3.916c3.48,0,6.712,1.736,8.648,4.644
				c0.736,1.104,1.976,1.768,3.304,1.768h4.66c2.192,0,3.968-1.776,3.968-3.968V32.853c0-0.852-0.276-1.684-0.784-2.368
				c-4.604-6.232-11.596-9.78-19.18-9.78H23.02c-4.7,0-8.528,3.824-8.528,8.528v211.448c0,5.948,4.836,10.784,10.784,10.784h26.376
				c7.12,0,13.84-3.208,18.444-8.796c0.984-1.196,1.528-2.732,1.528-4.324v-13.22C71.624,222.933,69.848,221.157,67.656,221.157z
				 M67.656,238.321c0,0.652-0.208,1.3-0.624,1.804c-3.672,4.46-9.184,7.352-15.376,7.352H25.28c-3.748,0-6.816-3.068-6.816-6.816
				V29.229c0-2.508,2.052-4.56,4.556-4.56h28.636c6.552,0,12.348,3.236,16,8.144v13.692h-4.66
				c-2.572-3.864-6.964-6.412-11.952-6.412c-9.032,0-16.116,8.34-13.968,17.736c1.208,5.292,5.572,9.544,10.888,10.652
				c1.044,0.216,2.076,0.32,3.08,0.32c4.988,0,9.38-2.548,11.952-6.412h4.66v24.796h-4.66c-2.572-3.864-6.964-6.412-11.952-6.412
				c-9.032,0-16.116,8.34-13.968,17.736c1.208,5.292,5.572,9.544,10.888,10.652c1.044,0.216,2.076,0.32,3.08,0.32
				c4.988,0,9.38-2.548,11.952-6.412h4.66v24.796h-4.66c-2.572-3.864-6.964-6.412-11.952-6.412c-9.032,0-16.116,8.34-13.968,17.736
				c1.208,5.292,5.572,9.544,10.888,10.652c1.044,0.216,2.076,0.32,3.08,0.32c4.988,0,9.38-2.548,11.952-6.412h4.66v24.796h-4.66
				c-2.572-3.864-6.964-6.412-11.952-6.412c-9.032,0-16.112,8.34-13.968,17.736c1.208,5.292,5.576,9.544,10.888,10.652
				c1.044,0.216,2.076,0.32,3.08,0.32c4.988,0,9.38-2.548,11.952-6.412h4.66v24.796h-4.66c-2.572-3.864-6.964-6.412-11.952-6.412
				c-9.032,0-16.116,8.34-13.968,17.736c1.208,5.292,5.576,9.544,10.888,10.648c1.044,0.216,2.072,0.32,3.08,0.32
				c4.988,0,9.38-2.548,11.952-6.412h4.66V238.321z"/>
			<path d="M32.408,30.461h-8.372c-0.468,0-0.852,0.38-0.852,0.848v209.544c0,0.468,0.384,0.848,0.852,0.848h8.372
				c0.468,0,0.852-0.38,0.852-0.848v-13.876c0-0.468-0.384-0.848-0.852-0.848s-0.852,0.38-0.852,0.848v13.024h-6.668V32.161h6.668
				v15.484c0,0.468,0.384,0.848,0.852,0.848s0.852-0.38,0.852-0.848V31.313C33.256,30.845,32.876,30.461,32.408,30.461z"/>
			<path d="M115.18,166.649h-0.428l-3.872-153.94c0-4.292-6.084-10.852-7.3-12.124c-0.752-0.78-2.116-0.78-2.868,0
				c-1.22,1.272-7.3,7.832-7.3,12.072l-3.868,153.992h-0.428c-1.068,0-1.944,0.844-1.984,1.912
				c-0.232,6.284-0.348,12.584-0.348,18.732c0,35.452,4.036,73.336,15.364,73.336s15.364-37.884,15.364-73.336
				c0-6.144-0.116-12.448-0.348-18.732C117.124,167.493,116.244,166.649,115.18,166.649z M97.384,12.709
				c0-1.628,2.492-5.144,4.764-7.792c2.272,2.652,4.764,6.168,4.764,7.844l3.868,153.892H93.512L97.384,12.709z M102.148,256.661
				c-4.592,0-11.396-22.048-11.396-69.368c0-5.472,0.092-11.072,0.28-16.672h22.228c0.188,5.6,0.28,11.2,0.28,16.672
				C113.544,234.613,106.74,256.661,102.148,256.661z"/>
			<path d="M106.316,126.701c-0.4-0.224-0.928-0.08-1.16,0.328l-7.5,13.44c-0.232,0.412-0.084,0.928,0.328,1.156
				c0.128,0.076,0.272,0.108,0.416,0.108c0.296,0,0.584-0.156,0.744-0.436l7.5-13.44
				C106.876,127.445,106.728,126.929,106.316,126.701z"/>
			<path d="M106.316,137.081c-0.4-0.224-0.928-0.084-1.16,0.328l-7.5,13.436c-0.232,0.412-0.084,0.928,0.328,1.156
				c0.128,0.076,0.272,0.108,0.416,0.108c0.296,0,0.584-0.156,0.744-0.436l7.5-13.436
				C106.876,137.825,106.728,137.309,106.316,137.081z"/>
			<path d="M106.316,147.457c-0.4-0.228-0.928-0.08-1.16,0.328l-7.5,13.44c-0.232,0.412-0.084,0.928,0.328,1.156
				c0.128,0.076,0.272,0.108,0.416,0.108c0.296,0,0.584-0.156,0.744-0.436l7.5-13.44
				C106.876,148.201,106.728,147.685,106.316,147.457z"/>
			<path d="M102.148,176.461c-4.216,0-7.52,7.548-7.52,17.18c0,9.636,3.304,17.184,7.52,17.184s7.516-7.548,7.516-17.184
				C109.664,184.009,106.364,176.461,102.148,176.461z M102.148,209.129c-2.752,0-5.816-6.36-5.816-15.484
				c0-9.124,3.068-15.484,5.816-15.484s5.812,6.36,5.812,15.484S104.9,209.129,102.148,209.129z"/>
		</g>
	</g>
</g>
</svg>