<?xml version="1.0" encoding="iso-8859-1"?>
<!-- Uploaded to: SVG Repo, www.svgrepo.com, Generator: SVG Repo Mixer Tools -->
<svg fill="#000000" height="800px" width="800px" version="1.1" id="Layer_1" xmlns="http://www.w3.org/2000/svg" xmlns:xlink="http://www.w3.org/1999/xlink" 
	 viewBox="0 0 234.232 234.232" xml:space="preserve">
<g>
	<g>
		<g>
			<path d="M92.129,101.904v-1.488c1.104-0.932,1.772-2.012,1.772-3.252c0-0.624-0.508-1.132-1.132-1.132
				c-0.248,0-0.452,0.128-0.64,0.264v-2.544c0-0.52,0-2.084,0-2.404c0-5-8.324-7.696-16.16-7.696s-16.164,2.696-16.164,7.696
				c0,0.064,0.024,0.12,0.036,0.18c-0.5-0.064-1.012-0.104-1.524-0.152V35.944c1.364-1.136,2.232-2.744,2.232-4.544v-7.492
				c0-2.664-3.904-18.3-8.24-22.572c-0.784-0.768-1.588-1.192-2.404-1.252c-0.4-0.124-0.904-0.136-1.412,0.14
				c-1.188,0.656-1.716,2.524-1.716,6.056V31.4c0,1.8,0.868,3.408,2.232,4.544v55.44c-6.708,0.632-12.664,2.636-12.664,6.292
				c0,0.344,0,1.584,0,1.944v9.268c-2.616,1.34-4.308,3.072-4.308,5.264c0,0.608,0,2.336,0,2.76v88.984
				c0,5.656,10.88,8.612,21.624,8.612c10.744,0,21.624-2.956,21.624-8.612v-1.344c0.224,0.004,0.452,0.012,0.676,0.012
				c10.016,0,20.152-2.888,20.152-8.408V109.72c0-0.512,0-2.264,0-2.68C96.121,104.908,94.557,103.212,92.129,101.904z
				 M75.969,86.828c7.924,0,12.988,2.68,12.988,4.524c0,1.844-5.064,4.524-12.988,4.524c-2.284,0-4.28-0.244-6.024-0.604
				c-1.288-1.404-3.696-2.424-6.616-3.1c-0.204-0.28-0.348-0.56-0.348-0.816C62.977,89.508,68.037,86.828,75.969,86.828z
				 M70.841,98.596c1.676,0.264,3.396,0.448,5.124,0.448c4.84,0,9.852-1.036,12.988-3v3.728c-2.632,1.3-7.088,2.368-12.948,2.368
				c-1.844,0-3.48-0.144-5.024-0.332V99.62C70.981,99.268,70.913,98.932,70.841,98.596z M70.985,104.06
				c1.652,0.2,3.332,0.344,5.024,0.344c4.684,0,9.48-0.764,12.948-2.188v0.528c0,1.844-5.064,4.524-12.988,4.524
				c-1.864,0-3.48-0.192-4.984-0.452V104.06z M49.049,6.28c0-2.688,0.344-3.66,0.508-3.972l0.128,0.036c0,0,0.004,0,0.008,0
				c0.26,0,0.624,0.22,1.028,0.612c1.964,1.932,3.976,7.1,5.432,11.86l-6.456,3.416c-0.472,0.248-0.652,0.832-0.404,1.3
				c0.172,0.328,0.508,0.516,0.852,0.516c0.152,0,0.308-0.036,0.448-0.112l6.116-3.236c0.204,0.716,0.396,1.42,0.564,2.08
				l-7.576,4.004c-0.472,0.248-0.652,0.832-0.404,1.3c0.172,0.328,0.508,0.516,0.852,0.516c0.152,0,0.308-0.036,0.448-0.112
				l7.144-3.776c0.192,0.848,0.336,1.576,0.428,2.148l-8.468,4.48c-0.472,0.248-0.652,0.832-0.404,1.3
				c0.172,0.328,0.508,0.516,0.852,0.516c0.152,0,0.308-0.036,0.448-0.112l7.688-4.064v6.428c0,2.172-2.072,3.936-4.616,3.936
				s-4.616-1.764-4.616-3.936V6.28z M56.053,37.196v58.04c0,0.52,0,1.304-2.388,1.304s-2.388-0.816-2.388-1.304v-58.04
				c0.748,0.252,1.544,0.408,2.388,0.408S55.309,37.448,56.053,37.196z M49.013,94.592v0.644c0,1.332,0.6,3.572,4.652,3.572
				c4.052,0,4.652-2.24,4.652-3.572v-0.668c6.212,0.64,9.492,2.404,9.492,3.108c0,0.864-4.864,3.364-14.144,3.364
				c-9.28,0-14.144-2.5-14.144-3.364C39.521,96.972,42.821,95.232,49.013,94.592z M39.521,101.648
				c3.352,1.74,8.868,2.564,14.144,2.564s10.792-0.824,14.144-2.564v8.408c0,0.864-4.864,3.368-14.144,3.368
				c-9.28,0-14.144-2.504-14.144-3.368V101.648z M37.077,112.016c2.216,3.116,9.592,4.58,16.588,4.58
				c6.968,0,14.304-1.452,16.556-4.54c1.196,0.716,1.9,1.448,1.9,2.1c0,2.212-7.192,5.436-18.456,5.436
				c-11.26,0-18.452-3.224-18.452-5.44C35.213,113.492,35.881,112.744,37.077,112.016z M72.121,205.896
				c0,2.22-7.192,5.44-18.452,5.44s-18.452-3.224-18.452-5.44v-87.044c4.008,2.58,11.252,3.912,18.452,3.912
				s14.448-1.336,18.452-3.912V205.896z M92.949,196.16c0,2.132-6.616,5.236-16.98,5.236c-0.236,0-0.452-0.016-0.676-0.024v-84.46
				c0-0.472-0.248-1.384-0.22-1.484c0.3,0.004,0.596,0.02,0.896,0.02c6.588,0,13.208-1.256,16.98-3.68V196.16z M75.969,112.276
				c-0.42,0-0.792-0.032-1.188-0.048c-0.364-0.716-0.96-1.356-1.688-1.952c0.952,0.1,1.912,0.164,2.876,0.164
				c6.496,0,13.256-1.88,15.4-5.36c1.016,0.668,1.58,1.356,1.58,1.964C92.949,109.176,86.329,112.276,75.969,112.276z"/>
			<path d="M43.285,161.096c0,13.516,3.636,27.884,10.384,27.884s10.384-14.368,10.384-27.884s-3.636-27.884-10.384-27.884
				S43.285,147.58,43.285,161.096z M61.785,161.096c0,15.096-4.276,25.616-8.116,25.616c-3.84,0-8.116-10.52-8.116-25.616
				s4.276-25.616,8.116-25.616C57.509,135.48,61.785,146,61.785,161.096z"/>
			<path d="M201.889,200.072c-0.712-4.772-2.66-7.78-5.476-8.468c-0.328-0.08-0.66-0.12-0.992-0.136
				c-0.2-0.068-0.364-0.196-0.572-0.248l-43.384-10.608v-34.204c0-0.308,0-1.36,0-1.608c0-2.292-1.668-4.312-4.36-5.948v-29.32
				c0-0.504,0-2.128,0-2.504c0-2.904-2.888-5.012-6.896-6.332c-0.208-5.148-0.584-14.272-0.684-16.644l-0.14-0.592
				c-0.736-1.596-1.216-2.6-1.66-3.528c-1.152-2.4-2.408-5.272-7.004-16.32h-1.124c-5.928,0-10.752,4.82-10.752,10.752v26.368
				c-3.928,1.328-6.756,3.428-6.756,6.3c0,0.368,0,1.992,0,2.504v29.304c-2.704,1.64-4.36,3.668-4.36,5.964c0,0.168,0,1.228,0,1.608
				v53.152c0,5.444,9.996,8.396,20.344,8.664c-0.06,1.588-0.06,3.12,0.076,4.504c0.596,6.104,2.876,7.912,4.66,8.348l51.648,12.628
				c0.02,0.004,0.04,0.004,0.06,0.008c-0.04-0.128-0.044-0.256-0.08-0.384c0.496,0.328,1.008,0.616,1.584,0.756
				c0.404,0.096,0.804,0.144,1.216,0.144c2.484,0,5.12-1.776,7.56-5.132c2.548-3.512,4.688-8.448,6.024-13.908
				C202.153,209.736,202.533,204.364,201.889,200.072z M122.017,74.36h0.004c0-3.828,2.856-7.004,6.548-7.508
				c4.256,10.204,5.164,12.088,6.3,14.452c0.412,0.856,0.852,1.776,1.5,3.192c0.104,2.492,0.796,19.148,0.808,19.78
				c0,1.3-2.952,3.192-7.58,3.192c-4.54,0-7.456-1.82-7.552-3.124l-0.028-0.028V74.36z M118.849,104.068v0.388l0.108,0.108
				l-0.076,0.004c0.248,3.46,4.856,6.072,10.716,6.072c6.128,0,10.752-2.736,10.752-6.364c0-0.02-0.004-0.108-0.008-0.2
				c2.272,0.92,3.592,2.024,3.592,2.948c0,1.948-5.584,4.78-14.336,4.78c-8.752,0-14.336-2.832-14.336-4.78
				C115.265,106.1,116.589,104.992,118.849,104.068z M143.937,111.712v27.428c0,1.948-5.584,4.78-14.336,4.78
				c-8.752,0-14.336-2.832-14.336-4.78v-27.428c3.376,2.136,8.952,3.268,14.336,3.268
				C134.985,114.98,140.561,113.852,143.937,111.712z M113.737,142.64c2.976,2.908,9.56,4.452,15.864,4.452
				c6.308,0,12.896-1.544,15.872-4.456c1.328,0.576,2.276,1.588,2.62,2.832c-1.016,2.98-8.54,6.044-18.492,6.044
				c-9.956,0-17.484-3.068-18.492-6.044C111.453,144.22,112.405,143.216,113.737,142.64z M129.573,197.772
				c-0.608,2.484-1.02,4.928-1.272,7.264c-10.636-0.244-17.396-3.316-17.396-5.476v-49.548c3.756,2.836,10.54,4.672,18.696,4.672
				s14.936-1.836,18.696-4.672v29.828l-5.08-1.24c-1.824-0.44-4.66,0.112-8.004,5.252
				C132.905,187.396,130.901,192.344,129.573,197.772z M133.581,217.996c-0.816-0.2-1.9-1.776-2.268-5.576
				c-0.376-3.868,0.1-8.8,1.348-13.892c1.248-5.092,3.096-9.692,5.216-12.948c1.904-2.92,3.48-3.924,4.352-3.924
				c0.084,0,0.16,0.008,0.228,0.024l48.08,11.76c-0.98,0.816-1.952,1.852-2.892,3.152c-2.552,3.512-4.688,8.448-6.024,13.912
				c-1.936,7.92-1.764,14.94,0.096,19.264L133.581,217.996z M197.733,214.436c-1.24,5.068-3.196,9.612-5.508,12.8
				c-1.972,2.72-4.04,4.112-5.444,3.764c-3.08-0.752-4.62-9.36-2.08-19.752c1.24-5.072,3.196-9.612,5.508-12.796
				c1.764-2.436,3.588-3.82,4.988-3.82c0.16,0,0.312,0.02,0.46,0.056c1.44,0.352,2.596,2.54,3.092,5.856
				C199.333,204.436,198.973,209.372,197.733,214.436z"/>
		</g>
	</g>
</g>
</svg>