<!DOCTYPE svg PUBLIC "-//W3C//DTD SVG 1.1//EN" "http://www.w3.org/Graphics/SVG/1.1/DTD/svg11.dtd">

<!-- Uploaded to: SVG Repo, www.svgrepo.com, Transformed by: SVG Repo Mixer Tools -->
<svg fill="#ff8080" height="800px" width="800px" version="1.1" id="Capa_1" xmlns="http://www.w3.org/2000/svg" xmlns:xlink="http://www.w3.org/1999/xlink" viewBox="0 0 436.852 436.852" xml:space="preserve" stroke="#ff8080" stroke-width="0.00436852">

<g id="SVGRepo_bgCarrier" stroke-width="0"/>

<g id="SVGRepo_tracerCarrier" stroke-linecap="round" stroke-linejoin="round"/>

<g id="SVGRepo_iconCarrier"> <g> <path d="M426.622,209.736c-6.501-5.873-15.229-8.735-23.945-7.844l-57.938,5.903c-15.813,1.611-27.752,14.75-27.881,30.614H300.46 c-7.279-26.124-21.589-50.057-41.13-68.973v-58.794c0-28.388-11.058-55.08-31.137-75.159 c-20.079-20.08-46.774-31.138-75.169-31.138c-58.617,0-106.306,47.685-106.306,106.297v58.884C17.93,197.367,0,236.37,0,279.488 c0,84.375,68.645,153.02,153.02,153.02c84.381,0,153.03-68.645,153.03-153.02c0-1.018-0.035-2.052-0.056-3.08h10.864 c0.127,15.866,12.067,29.007,27.881,30.618l57.937,5.903c1.046,0.106,2.091,0.159,3.133,0.159c7.646,0,15.092-2.834,20.813-8.002 c6.502-5.873,10.23-14.266,10.23-23.028v-49.294C436.852,224.002,433.124,215.609,426.622,209.736z M261.82,279.488 c0,59.987-48.807,108.79-108.8,108.79c-59.987,0-108.79-48.803-108.79-108.79c0-59.993,48.803-108.8,108.79-108.8 c23.851,0,46.491,7.572,65.473,21.899c15.626,11.793,27.889,27.816,35.268,45.821h-76.414c-6.118-6.943-14.942-10.99-24.326-10.99 c-10.781,0-20.828,5.342-26.884,14.304c-3.609,5.366-5.516,11.627-5.516,18.105c0,4.066,0.749,8.041,2.227,11.817 c2.337,5.962,6.354,11.047,11.533,14.686v26.577c0,10.278,8.362,18.64,18.64,18.64c10.278,0,18.64-8.362,18.64-18.64v-26.577 c3.733-2.623,6.852-6.008,9.188-9.923h80.902C261.779,277.434,261.82,278.459,261.82,279.488z M146.745,276.408h12.549 c-1.643,1.406-2.635,3.468-2.635,5.69v30.81c0,2.007-1.633,3.64-3.64,3.64c-2.007,0-3.64-1.633-3.64-3.64v-30.81 C149.38,279.876,148.389,277.814,146.745,276.408z M135.693,261.408c-0.047-0.523-0.073-1.05-0.073-1.58 c0-2.222,0.42-4.393,1.222-6.42h180.01v8H135.693z M61.718,110.641c0-50.341,40.96-91.297,91.306-91.297 c24.388,0,47.316,9.498,64.562,26.744c17.246,17.246,26.744,40.171,26.744,64.553v46.044c-5.26-3.911-10.758-7.469-16.453-10.657 v-35.387c0-41.269-33.579-74.843-74.853-74.843s-74.853,33.574-74.853,74.843v35.417c-5.72,3.222-11.218,6.794-16.454,10.7V110.641 z M212.876,138.671c-18.821-7.986-39.213-12.213-59.856-12.213c-21.227,0-41.456,4.348-59.849,12.195v-28.013 c0-32.998,26.85-59.843,59.853-59.843s59.853,26.845,59.853,59.843V138.671z M291.05,279.488c0,76.104-61.92,138.02-138.03,138.02 C76.916,417.508,15,355.593,15,279.488c0-76.11,61.916-138.03,138.02-138.03c31.723,0,61.546,10.462,86.247,30.256 c21.483,17.215,37.415,40.636,45.551,66.693h-15.003c-8.037-22.789-22.892-43.157-42.286-57.794 c-21.605-16.307-47.371-24.926-74.509-24.926c-68.258,0-123.79,55.536-123.79,123.8c0,68.258,55.532,123.79,123.79,123.79 c68.264,0,123.8-55.532,123.8-123.79c0-1.027-0.015-2.054-0.041-3.08h14.215C291.017,277.437,291.05,278.47,291.05,279.488z M421.852,282.057c0,4.593-1.877,8.818-5.285,11.896c-3.408,3.078-7.803,4.522-12.37,4.052h-0.001l-57.938-5.903 c-8.213-0.837-14.406-7.693-14.406-15.948v-37.489c0-8.255,6.193-15.112,14.406-15.949l57.938-5.903 c0.563-0.058,1.124-0.086,1.68-0.086c3.957,0,7.703,1.439,10.691,4.138c3.408,3.079,5.285,7.304,5.285,11.896V282.057z"/> <path d="M393.62,235.258c-12.406,0-22.5,10.093-22.5,22.5s10.094,22.5,22.5,22.5s22.5-10.093,22.5-22.5 S406.026,235.258,393.62,235.258z M393.62,265.258c-4.136,0-7.5-3.364-7.5-7.5s3.364-7.5,7.5-7.5s7.5,3.364,7.5,7.5 S397.755,265.258,393.62,265.258z"/> </g> </g>

</svg>