<!DOCTYPE svg PUBLIC "-//W3C//DTD SVG 1.1//EN" "http://www.w3.org/Graphics/SVG/1.1/DTD/svg11.dtd">
<!-- Uploaded to: SVG Repo, www.svgrepo.com, Transformed by: SVG Repo Mixer Tools -->
<svg fill="#ffffff" height="800px" width="800px" version="1.1" id="Layer_1" xmlns="http://www.w3.org/2000/svg" xmlns:xlink="http://www.w3.org/1999/xlink" viewBox="0 0 500 500" xml:space="preserve" stroke="#ffffff">
<g id="SVGRepo_bgCarrier" stroke-width="0"/>
<g id="SVGRepo_tracerCarrier" stroke-linecap="round" stroke-linejoin="round"/>
<g id="SVGRepo_iconCarrier"> <g> <g> <path d="M354.4,5.855c-1.48-1.48-4.2-1.48-5.64,0c-0.76,0.756-1.2,1.756-1.2,2.84c0,1.08,0.44,2.08,1.2,2.84 c0.72,0.72,1.76,1.16,2.84,1.16c1.04,0,2.08-0.44,2.8-1.16c0.76-0.76,1.16-1.8,1.16-2.84C355.56,7.651,355.16,6.611,354.4,5.855z"/> </g> </g> <g> <g> <path d="M351.44,427.255c-2.24,0-4,1.76-4,4c0,2.2,1.76,4,4,4c2.2,0,4-1.8,4-4C355.44,429.015,353.64,427.255,351.44,427.255z"/> </g> </g> <g> <g> <path d="M351.44,403.255c-2.24,0-4,1.76-4,4c0,2.2,1.76,4,4,4c2.2,0,4-1.8,4-4C355.44,405.015,353.64,403.255,351.44,403.255z"/> </g> </g> <g> <g> <path d="M351.44,355.255c-2.24,0-4,1.76-4,4c0,2.2,1.76,4,4,4c2.2,0,4-1.8,4-4C355.44,357.015,353.64,355.255,351.44,355.255z"/> </g> </g> <g> <g> <path d="M351.44,343.255c-2.24,0-4,1.76-4,4c0,2.2,1.76,4,4,4c2.2,0,4-1.8,4-4C355.44,345.015,353.64,343.255,351.44,343.255z"/> </g> </g> <g> <g> <path d="M351.44,391.255c-2.24,0-4,1.76-4,4c0,2.2,1.76,4,4,4c2.2,0,4-1.8,4-4C355.44,393.015,353.64,391.255,351.44,391.255z"/> </g> </g> <g> <g> <path d="M351.44,367.255c-2.24,0-4,1.76-4,4c0,2.2,1.76,4,4,4c2.2,0,4-1.8,4-4C355.44,369.015,353.64,367.255,351.44,367.255z"/> </g> </g> <g> <g> <path d="M351.44,379.255c-2.24,0-4,1.76-4,4c0,2.2,1.76,4,4,4c2.2,0,4-1.8,4-4C355.44,381.015,353.64,379.255,351.44,379.255z"/> </g> </g> <g> <g> <path d="M351.44,415.255c-2.24,0-4,1.76-4,4c0,2.2,1.76,4,4,4c2.2,0,4-1.8,4-4C355.44,417.015,353.64,415.255,351.44,415.255z"/> </g> </g> <g> <g> <path d="M351.44,487.255c-2.24,0-4,1.76-4,4c0,2.2,1.76,4,4,4c2.2,0,4-1.8,4-4C355.44,489.015,353.64,487.255,351.44,487.255z"/> </g> </g> <g> <g> <path d="M351.44,475.255c-2.24,0-4,1.76-4,4c0,2.2,1.76,4,4,4c2.2,0,4-1.8,4-4C355.44,477.015,353.64,475.255,351.44,475.255z"/> </g> </g> <g> <g> <path d="M351.44,163.255c-2.24,0-4,1.76-4,4c0,2.2,1.76,4,4,4c2.2,0,4-1.8,4-4C355.44,165.015,353.64,163.255,351.44,163.255z"/> </g> </g> <g> <g> <path d="M351.44,451.255c-2.24,0-4,1.76-4,4c0,2.2,1.76,4,4,4c2.2,0,4-1.8,4-4C355.44,453.015,353.64,451.255,351.44,451.255z"/> </g> </g> <g> <g> <path d="M351.44,463.255c-2.24,0-4,1.76-4,4c0,2.2,1.76,4,4,4c2.2,0,4-1.8,4-4C355.44,465.015,353.64,463.255,351.44,463.255z"/> </g> </g> <g> <g> <path d="M351.44,439.255c-2.24,0-4,1.76-4,4c0,2.2,1.76,4,4,4c2.2,0,4-1.8,4-4C355.44,441.015,353.64,439.255,351.44,439.255z"/> </g> </g> <g> <g> <path d="M351.44,235.255c-2.24,0-4,1.76-4,4c0,2.2,1.76,4,4,4c2.2,0,4-1.8,4-4C355.44,237.015,353.64,235.255,351.44,235.255z"/> </g> </g> <g> <g> <path d="M351.44,211.255c-2.24,0-4,1.76-4,4c0,2.2,1.76,4,4,4c2.2,0,4-1.8,4-4C355.44,213.015,353.64,211.255,351.44,211.255z"/> </g> </g> <g> <g> <path d="M351.44,199.255c-2.24,0-4,1.8-4,4s1.76,4,4,4c2.2,0,4-1.8,4-4S353.64,199.255,351.44,199.255z"/> </g> </g> <g> <g> <path d="M351.44,223.255c-2.24,0-4,1.8-4,4s1.76,4,4,4c2.2,0,4-1.8,4-4S353.64,223.255,351.44,223.255z"/> </g> </g> <g> <g> <path d="M351.44,247.255c-2.24,0-4,1.76-4,4c0,2.2,1.76,4,4,4c2.2,0,4-1.8,4-4C355.44,249.015,353.64,247.255,351.44,247.255z"/> </g> </g> <g> <g> <path d="M351.44,187.255c-2.24,0-4,1.76-4,4c0,2.2,1.76,4,4,4c2.2,0,4-1.8,4-4C355.44,189.015,353.64,187.255,351.44,187.255z"/> </g> </g> <g> <g> <path d="M351.44,331.255c-2.24,0-4,1.76-4,4c0,2.2,1.76,4,4,4c2.2,0,4-1.8,4-4C355.44,333.015,353.64,331.255,351.44,331.255z"/> </g> </g> <g> <g> <path d="M351.44,175.255c-2.24,0-4,1.8-4,4s1.76,4,4,4c2.2,0,4-1.8,4-4S353.64,175.255,351.44,175.255z"/> </g> </g> <g> <g> <path d="M351.44,307.255c-2.24,0-4,1.76-4,4c0,2.2,1.76,4,4,4c2.2,0,4-1.8,4-4C355.44,309.015,353.64,307.255,351.44,307.255z"/> </g> </g> <g> <g> <path d="M351.44,295.255c-2.24,0-4,1.76-4,4c0,2.2,1.76,4,4,4c2.2,0,4-1.8,4-4C355.44,297.015,353.64,295.255,351.44,295.255z"/> </g> </g> <g> <g> <path d="M351.44,319.255c-2.24,0-4,1.76-4,4c0,2.2,1.76,4,4,4c2.2,0,4-1.8,4-4C355.44,321.015,353.64,319.255,351.44,319.255z"/> </g> </g> <g> <g> <path d="M351.44,271.255c-2.24,0-4,1.76-4,4c0,2.2,1.76,4,4,4c2.2,0,4-1.8,4-4C355.44,273.015,353.64,271.255,351.44,271.255z"/> </g> </g> <g> <g> <path d="M351.44,283.255c-2.24,0-4,1.76-4,4c0,2.2,1.76,4,4,4c2.2,0,4-1.8,4-4C355.44,285.015,353.64,283.255,351.44,283.255z"/> </g> </g> <g> <g> <path d="M351.44,259.255c-2.24,0-4,1.76-4,4c0,2.2,1.76,4,4,4c2.2,0,4-1.8,4-4C355.44,261.015,353.64,259.255,351.44,259.255z"/> </g> </g> <g> <g> <path d="M351.44,90.895c-2.2,0-4,1.8-4,4c0,2.2,1.8,4,4,4s4-1.8,4-4C355.44,92.695,353.64,90.895,351.44,90.895z"/> </g> </g> <g> <g> <path d="M351.44,78.895c-2.2,0-4,1.8-4,4c0,2.2,1.8,4,4,4s4-1.8,4-4C355.44,80.695,353.64,78.895,351.44,78.895z"/> </g> </g> <g> <g> <path d="M351.44,18.895c-2.2,0-4,1.8-4,4c0,2.2,1.8,4,4,4s4-1.8,4-4C355.44,20.695,353.64,18.895,351.44,18.895z"/> </g> </g> <g> <g> <path d="M351.44,102.895c-2.2,0-4,1.8-4,4c0,2.2,1.8,4,4,4s4-1.8,4-4C355.44,104.695,353.64,102.895,351.44,102.895z"/> </g> </g> <g> <g> <path d="M351.44,54.895c-2.2,0-4,1.8-4,4c0,2.2,1.8,4,4,4s4-1.8,4-4C355.44,56.695,353.64,54.895,351.44,54.895z"/> </g> </g> <g> <g> <path d="M351.44,30.895c-2.2,0-4,1.8-4,4c0,2.2,1.8,4,4,4s4-1.8,4-4C355.44,32.695,353.64,30.895,351.44,30.895z"/> </g> </g> <g> <g> <path d="M351.44,42.895c-2.2,0-4,1.8-4,4c0,2.2,1.8,4,4,4s4-1.8,4-4C355.44,44.695,353.64,42.895,351.44,42.895z"/> </g> </g> <g> <g> <path d="M351.44,66.895c-2.2,0-4,1.8-4,4c0,2.2,1.8,4,4,4s4-1.8,4-4C355.44,68.695,353.64,66.895,351.44,66.895z"/> </g> </g> <g> <g> <path d="M351.58,110.319c-12.96,0-23.504,10.548-23.504,23.508c0,12.96,10.544,23.504,23.504,23.504 c12.96,0,23.508-10.544,23.508-23.504C375.088,120.867,364.544,110.319,351.58,110.319z M351.58,149.331 c-8.548,0-15.504-6.952-15.504-15.504s6.956-15.508,15.504-15.508c8.548,0,15.508,6.956,15.508,15.508 S360.132,149.331,351.58,149.331z"/> </g> </g> <g> <g> <path d="M476.492,66.943c-12.96,0-23.504,10.548-23.504,23.508s10.544,23.504,23.504,23.504c12.964,0,23.508-10.544,23.508-23.504 S489.456,66.943,476.492,66.943z M476.492,105.955c-8.548,0-15.504-6.952-15.504-15.504s6.956-15.508,15.504-15.508 c8.552,0,15.508,6.956,15.508,15.508S485.044,105.955,476.492,105.955z"/> </g> </g> <g> <g> <path d="M351.58,129.823c-2.428,0-4.404,1.98-4.404,4.404c0,2.436,1.976,4.412,4.404,4.412s4.408-1.976,4.412-4.412 C355.992,131.799,354.012,129.823,351.58,129.823z M351.58,137.823c-1.976,0-3.588-1.612-3.588-3.596 c0-1.98,1.608-3.588,3.588-3.588c1.984,0,3.596,1.612,3.596,3.588C355.176,136.211,353.564,137.823,351.58,137.823z"/> </g> </g> <g> <g> <path d="M249.752,234.751c-10.96,0-19.876,8.916-19.876,19.872c0,10.964,8.916,19.88,19.876,19.88s19.876-8.916,19.876-19.88 C269.628,243.667,260.712,234.751,249.752,234.751z M249.752,266.507c-6.548,0-11.876-5.328-11.876-11.88 c0-6.548,5.328-11.872,11.876-11.872c6.548,0,11.876,5.324,11.876,11.872C261.628,261.179,256.3,266.507,249.752,266.507z"/> </g> </g> <g> <g> <path d="M148.492,219.223c-10.96,0-19.876,8.92-19.876,19.88c0,10.956,8.916,19.872,19.876,19.872s19.876-8.912,19.876-19.872 C168.368,228.139,159.452,219.223,148.492,219.223z M148.492,250.979c-6.548,0-11.876-5.324-11.876-11.872 c0-6.552,5.328-11.88,11.876-11.88c6.548,0,11.876,5.328,11.876,11.88C160.368,245.655,155.04,250.979,148.492,250.979z"/> </g> </g> <g> <g> <path d="M98.024,359.555c-10.96,0-19.876,8.916-19.876,19.872s8.916,19.872,19.876,19.872c10.96,0,19.876-8.916,19.876-19.872 S108.984,359.555,98.024,359.555z M98.024,391.299c-6.548,0-11.876-5.324-11.876-11.872c0-6.548,5.328-11.872,11.876-11.872 c6.552,0,11.876,5.324,11.876,11.872C109.9,385.975,104.572,391.299,98.024,391.299z"/> </g> </g> <g> <g> <path d="M19.872,308.899C8.916,308.899,0,317.819,0,328.779c0,10.956,8.916,19.872,19.872,19.872 c10.96,0,19.876-8.912,19.876-19.872C39.748,317.815,30.832,308.899,19.872,308.899z M19.872,340.655 C13.328,340.655,8,335.331,8,328.783c0-6.552,5.328-11.88,11.872-11.88c6.548,0,11.876,5.328,11.876,11.88 C31.748,335.331,26.42,340.655,19.872,340.655z"/> </g> </g> <g> <g> <path d="M73.176,358.555l-37.808-24.504c-1.856-1.208-4.332-0.672-5.532,1.18c-1.204,1.856-0.672,4.332,1.18,5.532l37.808,24.504 c0.672,0.436,1.424,0.644,2.172,0.644c1.308,0,2.592-0.644,3.36-1.824C75.56,362.231,75.028,359.755,73.176,358.555z"/> </g> </g> <g> <g> <path d="M139.832,263.183c-2.076-0.736-4.368,0.336-5.116,2.412l-34.628,96.26c-0.748,2.08,0.332,4.368,2.412,5.12 c0.444,0.16,0.904,0.236,1.352,0.236c1.64,0,3.18-1.016,3.764-2.648l34.628-96.26 C142.992,266.223,141.912,263.935,139.832,263.183z"/> </g> </g> <g> <g> <path d="M219.636,245.963l-54.664-8.384c-2.168-0.34-4.228,1.16-4.56,3.348c-0.336,2.184,1.164,4.224,3.348,4.56l54.664,8.384 c0.204,0.032,0.408,0.048,0.612,0.048c1.94,0,3.644-1.416,3.948-3.396C223.32,248.339,221.82,246.299,219.636,245.963z"/> </g> </g> <g> <g> <path d="M331.848,157.951c-1.684-1.428-4.212-1.224-5.64,0.46L257.4,239.443c-1.428,1.684-1.224,4.208,0.46,5.64 c0.756,0.636,1.672,0.948,2.588,0.948c1.132,0,2.26-0.48,3.052-1.408l68.808-81.032 C333.736,161.907,333.532,159.383,331.848,157.951z"/> </g> </g> <g> <g> <path d="M445.384,101.555c-0.74-2.08-3.028-3.168-5.112-2.42l-70.996,25.352c-2.08,0.74-3.164,3.028-2.42,5.108 c0.584,1.636,2.124,2.656,3.768,2.656c0.448,0,0.9-0.076,1.348-0.236l70.992-25.352 C445.044,105.923,446.128,103.635,445.384,101.555z"/> </g> </g> </g>
</svg>