<?xml version="1.0" encoding="iso-8859-1"?>
<!-- Uploaded to: SVG Repo, www.svgrepo.com, Generator: SVG Repo Mixer Tools -->
<svg fill="#000000" height="800px" width="800px" version="1.1" id="Layer_1" xmlns="http://www.w3.org/2000/svg" xmlns:xlink="http://www.w3.org/1999/xlink" 
	 viewBox="0 0 235.044 235.044" xml:space="preserve">
<g>
	<g>
		<g>
			<path d="M18.512,61.208c0-7.148-8.92-15.432-9.256-15.768c0,0-9.256,8.62-9.256,15.768c0,8.156,4.78,11.06,9.252,11.06
				C13.728,72.272,18.512,69.364,18.512,61.208z M9.252,69.436c-4.08,0-6.416-3-6.416-8.224c0-4.612,4.396-10.056,6.416-12.316
				c2.024,2.26,6.42,7.704,6.42,12.316C15.676,66.436,13.336,69.436,9.252,69.436z"/>
			<path d="M223.412,197.724h-2.764c-1.648-3.792-5.288-6.288-9.632-6.304c0.136-1.016,0.204-2.024,0.204-3.016
				c0-13.224-10.756-23.984-23.984-23.984c-6.156,0-11.776,2.388-16.052,6.264c-5.252-7.88-13.076-16.308-22.404-24.004
				c-13.396-11.06-29.44-20.032-40.484-21.072v-0.304c0-11.312-9.284-35.528-31.268-43.78c0,0-0.036-33.8-0.052-33.784
				c-0.24-2.816-4.012-4.644-8.9-5.508c-0.212-4.048-0.284-8.656,1.716-10.752c0.56-0.592,1.248-0.956,2.16-1.128h0.08
				c0.108,0,0.204-0.04,0.304-0.06c0.3-0.032,0.608-0.06,0.96-0.052c1.472,0.02,5.348-0.372,8.668-0.732
				c3.596-0.388,5.752-2.616,5.768-5.964c0.016-3.308-2.18-5.596-5.724-5.98c-0.856-0.096-1.72-0.084-2.58-0.064l-0.9,0.008
				c-4.132-0.012-8.14,0.016-12.216,0.028c-9.864,0.036-20.068,0.072-30.084-0.12c-5.856-0.08-11.22,1.008-16.208,3.42
				c-2.2,1.064-4.456,2-6.716,2.936c-2.128,0.884-4.256,1.768-6.34,2.752c-3.192,1.516-4.44,4.628-3.108,7.752
				c1.292,3.016,4.208,4.228,7.644,3.172c1.432-0.448,3.568-1.168,5.532-2.232c8.772-4.768,18.176-6.676,28.064-5.632
				c0.908,0.048,1.78,0.072,2.612,0.088c2.372,0.056,3.884,0.156,4.852,0.536c0.032,0.016,0.064,0.024,0.096,0.036
				c0.644,0.276,1.036,0.692,1.24,1.348c0.5,1.596,0.624,6.772,0.58,10.576c-4.144,0.696-8.316,2.276-9.248,4.64v34.588
				c-23.144,8.376-31.268,33.948-31.268,43.9v83.056c0,9.02,42.336,9.28,47.164,9.28s47.16-0.26,47.16-9.28v-17.704
				c0.812,0.704,1.608,1.408,2.448,2.104c7.492,6.188,15.064,11.044,22.108,14.508c0.768,2.82,3.328,4.912,6.388,4.912
				c1.232,0,2.372-0.36,3.364-0.948c3.892,1.236,7.496,1.948,10.584,1.948c0.876,0,1.688-0.08,2.472-0.2
				c1.424,1.076,3.176,1.74,5.096,1.74h62.664c4.688,0,8.5-3.812,8.5-8.5S228.1,197.724,223.412,197.724z M74.192,81.948
				c-0.264,0.804-4.544,2.828-13.06,2.828c-8.52,0-12.796-2.024-13.06-2.792V51.86c3.024,1.74,8.052,2.64,13.06,2.64
				c5.004,0,10.032-0.9,13.056-2.64L74.192,81.948z M53.42,27.52c-2.192-0.172-7.288-0.708-8.092-0.752
				c-10.388-1.088-20.356,0.92-29.64,5.964c-1.748,0.948-3.704,1.608-5.024,2.016c-2.06,0.636-3.472,0.104-4.192-1.58
				c-0.74-1.72-0.108-3.204,1.716-4.072c2.04-0.964,4.124-1.832,6.212-2.696c2.308-0.96,4.616-1.916,6.864-3.004
				c4.64-2.248,9.472-3.26,14.916-3.136c10.06,0.188,20.28,0.156,30.152,0.116c4.072-0.012,8.06-0.036,12.204-0.028l0.948-0.012
				c0.748-0.012,1.488-0.028,2.224,0.048c2.124,0.228,3.2,1.288,3.192,3.148c-0.008,1.888-1.068,2.92-3.424,3.176
				c-1.768,0.192-6.42,0.692-8.084,0.692C73.34,27.408,53.42,27.52,53.42,27.52z M65.304,43.584
				c0.048,0.784,0.088,1.544,0.116,2.252c-0.444,0.272-1.816,0.76-4.124,0.76c-2.26,0-3.624-0.468-4.096-0.748
				c0.208-2.712,0.296-12.248-0.588-15.088c-0.048-0.152-0.124-0.264-0.18-0.408H67.12C64.78,33.688,65.052,39.124,65.304,43.584z
				 M54.412,44.984c-0.024,0.496-0.052,0.9-0.084,1.152c0,2.432,3.752,3.296,6.964,3.296c3.212,0,6.964-0.864,6.964-3.296v-0.2
				c-0.008-0.268-0.028-0.576-0.044-0.856c3.78,0.796,5.968,2.088,5.968,2.936c0,1.288-4.956,3.648-13.056,3.648
				c-8.1,0-13.06-2.36-13.06-3.648C48.072,47.14,50.392,45.772,54.412,44.984z M61.132,213.672c-25.488,0-41.76-3.324-43.196-5.312
				v-83.056c0-10.468,8.668-33.06,29.304-40.352c3.216,2.028,9.616,2.66,13.892,2.66c4.288,0,10.712-0.632,13.916-2.676
				c21.892,7.676,29.276,32.44,29.276,40.368v0.308c-2.792,0.316-5.104,1.324-6.7,3.248c-0.468,0.568-1.588,1.924-1.588,1.924
				l-4.956,6.004c-4.3-8.544-13.756-18-29.884-18c-24.644,0-32.696,20.776-32.696,27.936v49.252c0,5.332,25.028,5.744,32.696,5.744
				c7.668,0,32.696-0.416,32.696-5.744v-20.084c2.98,3.7,6.484,7.464,10.432,11.18v16.064l0.072,4.908
				C102.888,210.348,86.62,213.672,61.132,213.672z M91.052,172.188v23.496c-1.732,1.38-12.712,3.204-29.86,3.204
				s-28.128-1.824-29.86-3.204v-48.956c0-7.388,8.588-25.1,29.86-25.1c16.172,0,24.432,9.908,27.856,17.62l-4.62,5.596
				C79.892,150.344,82.8,160.728,91.052,172.188z M139.236,209.348c-2.1,0-3.812-1.708-3.812-3.812c0-2.1,1.712-3.812,3.812-3.812
				c2.1,0,3.808,1.708,3.808,3.812C143.044,207.636,141.34,209.348,139.236,209.348z M153.408,201.996
				c-0.76,1.292-1.16,2.732-1.16,4.224c0,1.048,0.216,2.04,0.564,2.968c-2.128-0.048-4.628-0.484-7.396-1.26
				c0.292-0.748,0.464-1.552,0.464-2.4c0-3.664-2.98-6.648-6.644-6.648c-2.732,0-5.084,1.664-6.104,4.028
				c-6.2-3.184-12.948-7.5-19.868-13.212c-21.276-17.568-30.66-36.412-25.768-42.332l8.384-10.16
				c0.54,3.508,2.22,7.644,5.024,12.236c5.196,8.504,13.688,17.832,23.908,26.268c4.42,3.652,8.968,6.972,13.52,9.868
				c0.92,0.584,2.152,0.32,2.74-0.608c0.588-0.924,0.316-2.152-0.604-2.74c-4.416-2.812-8.832-6.032-13.128-9.58
				c-9.888-8.164-18.072-17.14-23.044-25.28c-4.476-7.324-5.824-13.3-3.604-15.984c4.46-5.412,24.276,0.78,45.568,18.348
				c9.344,7.716,17.128,16.148,22.16,23.924c-2.292,2.924-3.98,6.36-4.712,10.18c-6.448,0.768-11.46,6.26-11.46,12.9
				C152.248,198.544,152.64,200.308,153.408,201.996z M223.412,210.752h-62.664c-2.5,0-4.532-2.032-4.532-4.528
				c0-1.28,0.564-2.24,1.036-2.82l0.184-2.236c-0.808-1.42-1.22-2.916-1.22-4.432c0-4.96,4.028-9,9.156-9c0.012,0,0.024,0,0.036,0
				l1.968-1.748c1.208-10.036,9.744-17.6,19.856-17.6c11.036,0,20.016,8.98,20.016,20.016c0,1.596-0.216,3.26-0.64,4.94l2.516,2.38
				c0.732-0.228,1.348-0.336,1.94-0.336c2.92,0,5.5,1.988,6.26,4.832l1.916,1.472h4.168c2.5,0,4.532,2.032,4.532,4.528
				S225.912,210.752,223.412,210.752z"/>
			<path d="M227.128,171.736c-4.368,0-7.916,3.552-7.916,7.916c0,4.364,3.552,7.916,7.916,7.916c4.364,0,7.916-3.552,7.916-7.916
				C235.044,175.288,231.496,171.736,227.128,171.736z M227.128,184.736c-2.8,0-5.084-2.28-5.084-5.084s2.28-5.084,5.084-5.084
				s5.084,2.28,5.084,5.084S229.928,184.736,227.128,184.736z"/>
			<path d="M169.428,150.908c3.976,0,7.216-3.24,7.216-7.22c0-3.98-3.24-7.216-7.216-7.216c-3.98,0-7.22,3.24-7.22,7.216
				C162.208,147.668,165.448,150.908,169.428,150.908z M169.428,139.308c2.416,0,4.38,1.964,4.38,4.38s-1.964,4.384-4.38,4.384
				s-4.384-1.964-4.384-4.384C165.044,141.272,167.012,139.308,169.428,139.308z"/>
			<path d="M189.316,142.964c7.408,0,13.432-6.028,13.432-13.432c0-7.404-6.028-13.432-13.432-13.432
				c-7.404,0-13.428,6.024-13.428,13.432S181.908,142.964,189.316,142.964z M189.316,118.936c5.844,0,10.596,4.752,10.596,10.596
				s-4.752,10.596-10.596,10.596c-5.84,0-10.592-4.752-10.592-10.596S183.476,118.936,189.316,118.936z"/>
			<path d="M122.9,125.392c0.22,0,0.436-0.012,0.668-0.032c1.32,3.348,4.54,5.592,8.22,5.592c4.892,0,8.868-3.976,8.868-8.864
				c0-3.224-1.8-6.192-4.584-7.736c0.168-0.832,0.248-1.604,0.248-2.376c0-7.4-6.02-13.416-13.416-13.416
				s-13.416,6.02-13.416,13.416S115.504,125.392,122.9,125.392z M122.9,101.392c5.836,0,10.584,4.748,10.584,10.584
				c0,0.856-0.132,1.744-0.424,2.792c0,0,5.44,3.384,4.76,7.324c-0.564,3.276-2.708,5.904-6.032,6.028
				c-5.336,0.2-7.664-5.676-7.664-5.676c-0.404,0.056-0.804,0.12-1.224,0.12c-5.836,0-10.584-4.748-10.584-10.584
				C112.316,106.144,117.064,101.392,122.9,101.392z"/>
			<path d="M62.04,147.036h-1.82c-0.584,0.492-14.336,12.168-14.336,22.66c0,9.792,5.844,15.876,15.248,15.876
				c9.404,0,15.248-6.084,15.248-15.876C76.376,159.204,62.628,147.524,62.04,147.036z M61.132,182.732
				c-7.768,0-12.412-4.872-12.412-13.04c0-7.744,9.404-16.936,12.412-19.68c3.008,2.744,12.412,11.936,12.412,19.68
				C73.54,177.86,68.9,182.732,61.132,182.732z"/>
		</g>
	</g>
</g>
</svg>