<!DOCTYPE svg PUBLIC "-//W3C//DTD SVG 1.1//EN" "http://www.w3.org/Graphics/SVG/1.1/DTD/svg11.dtd">

<!-- Uploaded to: SVG Repo, www.svgrepo.com, Transformed by: SVG Repo Mixer Tools -->
<svg fill="#ff8080" height="800px" width="800px" version="1.1" id="Layer_1" xmlns="http://www.w3.org/2000/svg" xmlns:xlink="http://www.w3.org/1999/xlink" viewBox="0 0 512 512" xml:space="preserve">

<g id="SVGRepo_bgCarrier" stroke-width="0"/>

<g id="SVGRepo_tracerCarrier" stroke-linecap="round" stroke-linejoin="round"/>

<g id="SVGRepo_iconCarrier"> <g> <g> <path d="M77.327,360.177c-21.89,0-39.698,17.808-39.698,39.698c0,21.89,17.808,39.698,39.698,39.698 c21.89,0,39.698-17.808,39.698-39.698C117.025,377.985,99.218,360.177,77.327,360.177z M77.327,420.964 c-11.629,0-21.089-9.461-21.089-21.089c0-11.629,9.46-21.089,21.089-21.089c11.629,0,21.089,9.46,21.089,21.089 C98.417,411.503,88.958,420.964,77.327,420.964z"/> </g> </g> <g> <g> <path d="M381.919,360.177c-21.89,0-39.698,17.808-39.698,39.698c0,21.89,17.808,39.698,39.698,39.698 c21.89,0,39.698-17.808,39.698-39.698C421.617,377.985,403.809,360.177,381.919,360.177z M381.919,420.964 c-11.629,0-21.089-9.461-21.089-21.089c0-11.629,9.46-21.089,21.089-21.089c11.629,0,21.089,9.46,21.089,21.089 C403.009,411.503,393.548,420.964,381.919,420.964z"/> </g> </g> <g> <g> <path d="M508.771,423.221c-3.892-3.353-9.767-2.918-13.123,0.974l-0.732,0.85c-11.815,13.702-29.956,19.128-46.842,14.849 c7.257-11.999,11.174-25.828,11.174-40.018c0-42.639-34.69-77.327-77.327-77.327c-26.436,0-49.807,13.342-63.758,33.638 l-81.235-78.211c-3.509-3.379-9.03-3.479-12.659-0.231l-16.471,14.743L35.211,53.825c-0.036-0.051-0.066-0.096-0.089-0.133 c0.069-0.081,0.165-0.162,0.254-0.22c0.034,0.029,0.074,0.065,0.119,0.109l270.927,264.91c3.676,3.591,9.566,3.522,13.157-0.154 c3.591-3.676,3.522-9.566-0.154-13.157l-31.792-31.282L439.106,64.74c5.867-8.101,4.628-18.721-2.944-25.255 c-7.572-6.535-18.261-6.203-25.414,0.786L229.624,217.225L48.498,40.27c-7.154-6.991-17.842-7.321-25.414-0.787 s-8.81,17.156-2.948,25.25l151.349,209.293l-58.575,57.227c-10.659-5.55-22.754-8.706-35.58-8.706 C34.69,322.547,0,357.235,0,399.875c0,18.505,6.641,36.413,18.698,50.421c14.717,17.1,36.086,26.908,58.631,26.908 c42.639,0,77.327-34.69,77.327-77.327c0-9.282-1.646-18.185-4.658-26.439l36.232-34.882c3.702-3.564,3.813-9.454,0.249-13.155 c-3.564-3.702-9.454-3.813-13.155-0.249l-32.237,31.036c-3.594-5.228-7.815-9.989-12.551-14.183l53.973-52.73l16.261,22.486 c1.544,2.136,3.923,3.516,6.543,3.799c2.616,0.282,5.238-0.561,7.201-2.319l17.729-15.869l79.007,76.066 c-3.012,8.252-4.658,17.157-4.658,26.439c0,42.639,34.69,77.327,77.327,77.327c20.18,0,39.404-7.878,53.772-21.79 c7.755,3.043,15.837,4.547,23.855,4.547c18.512,0,36.65-7.905,49.465-22.765l0.733-0.851 C513.098,432.45,512.662,426.575,508.771,423.221z M423.753,53.58c0.045-0.043,0.084-0.079,0.119-0.108 c0.089,0.056,0.185,0.139,0.254,0.218c-0.024,0.038-0.052,0.083-0.089,0.134L274.178,260.754l-31.24-30.521L423.753,53.58z M136.047,399.875c0,32.378-26.341,58.719-58.719,58.719c-17.118,0-33.349-7.45-44.527-20.438 c-9.152-10.633-14.192-24.228-14.192-38.281c0-32.378,26.342-58.719,58.719-58.719 C109.705,341.155,136.047,367.496,136.047,399.875z M426.445,438.156c-11.179,12.989-27.408,20.438-44.527,20.438 c-32.376,0-58.718-26.341-58.718-58.719c0-32.378,26.342-58.719,58.719-58.719c32.377,0,58.719,26.341,58.719,58.719 C440.638,413.926,435.598,427.523,426.445,438.156z"/> </g> </g> <g> <g> <circle cx="216.923" cy="260.727" r="9.304"/> </g> </g> </g>

</svg>